<mxfile host="app.diagrams.net" modified="2023-01-13T15:45:07.411Z" agent="5.0 (Macintosh; Intel Mac OS X 10_15_7) AppleWebKit/605.1.15 (KHTML, like Gecko) Version/16.1 Safari/605.1.15" etag="Rly3XquMWVoX92J-TOTZ" version="20.8.5" type="github">
  <diagram id="ndDibI7E4A4UimCJCeOr" name="페이지-1">
    <mxGraphModel dx="1076" dy="664" grid="1" gridSize="10" guides="1" tooltips="1" connect="1" arrows="1" fold="1" page="1" pageScale="1" pageWidth="827" pageHeight="1169" math="0" shadow="0">
      <root>
        <mxCell id="0" />
        <mxCell id="1" parent="0" />
        <mxCell id="dbFyvB4pgqcIV-iJ2E-Y-1" value="" style="rounded=0;whiteSpace=wrap;html=1;" parent="1" vertex="1">
          <mxGeometry x="154" y="90" width="526" height="460" as="geometry" />
        </mxCell>
        <mxCell id="dbFyvB4pgqcIV-iJ2E-Y-2" value="" style="rounded=0;whiteSpace=wrap;html=1;" parent="1" vertex="1">
          <mxGeometry x="154" y="90" width="520" height="30" as="geometry" />
        </mxCell>
        <mxCell id="dbFyvB4pgqcIV-iJ2E-Y-6" value="-&amp;nbsp; ㅁ X" style="rounded=0;whiteSpace=wrap;html=1;" parent="1" vertex="1">
          <mxGeometry x="584" y="90" width="96" height="30" as="geometry" />
        </mxCell>
        <mxCell id="dbFyvB4pgqcIV-iJ2E-Y-8" value="&amp;nbsp; &amp;nbsp; &amp;nbsp; woojinjeon.me" style="rounded=1;whiteSpace=wrap;html=1;align=left;" parent="1" vertex="1">
          <mxGeometry x="154.01" y="90" width="435.99" height="30" as="geometry" />
        </mxCell>
        <mxCell id="dbFyvB4pgqcIV-iJ2E-Y-9" value="" style="ellipse;whiteSpace=wrap;html=1;aspect=fixed;" parent="1" vertex="1">
          <mxGeometry x="332.01" y="182" width="170" height="170" as="geometry" />
        </mxCell>
        <mxCell id="dbFyvB4pgqcIV-iJ2E-Y-13" value="" style="endArrow=none;html=1;rounded=0;entryX=0;entryY=0;entryDx=0;entryDy=0;exitX=1;exitY=1;exitDx=0;exitDy=0;" parent="1" source="dbFyvB4pgqcIV-iJ2E-Y-9" target="dbFyvB4pgqcIV-iJ2E-Y-9" edge="1">
          <mxGeometry width="50" height="50" relative="1" as="geometry">
            <mxPoint x="344" y="270" as="sourcePoint" />
            <mxPoint x="394" y="220" as="targetPoint" />
          </mxGeometry>
        </mxCell>
        <mxCell id="dbFyvB4pgqcIV-iJ2E-Y-17" value="" style="shape=image;verticalLabelPosition=bottom;labelBackgroundColor=default;verticalAlign=top;aspect=fixed;imageAspect=0;image=data:image/png,iVBORw0KGgoAAAANSUhEUgAAALoAAAC5CAYAAACfmiVfAAAAAXNSR0IArs4c6QAAAARnQU1BAACxjwv8YQUAAAAJcEhZcwAADsMAAA7DAcdvqGQAAClSSURBVHhe7Z0HfBTV9sd/yW42vZCQSpDeISFAaCL2AoiAlaLvqaB0KaIiRZGqAkr50y1PaQqhgw0IRaR3hBBaIIT03nazm03+99wM7wFmN5tsmdlkvp9PSPbukuzO/ObMueeee45DKQMyMtUcR+G7jEy1pkoWnf6LXq9HSUkJ/7mm3hToc+t0OhQVaaHVaqHRaFBYWIjU1FSkpaUhOSUVGRkZyMrKQhr7npaWjnQ2ri0uRkFBIT9+jo6OcHBwgLu7K1ycXVCrVi34+9eGh7s7QoKD4efnh6DAADbmj0D23Y2N0+ucnJRQqVTsuxP/HTUROm70RZ9foVDwnw1RKaHTS4vZSSKR10Tos2cy0SYnJSPhzh0kJd5BcnIybiUkIT7+Nq5du46szHT2yhL2xQ66gwqOTgo4KZXsRDiWnRBB2OVBwi9hx5i+6/Ul0LG/V6Jjx7pUy54tZb/DCbUDg9CoQX0m+kDUCQ5CaJ1g1Amti7p1QxEcFAQfHx8o2d+riZDY6bOXd3xNFjqJm6xXTaOgoACxV67gxMnTOHXqNFKZsFOzc5CZno6crMyyFzEBkoVVVmBVLAFdBMXsIqCLDnr2xS4AH19f+NVmVt/HC/7sAujQvh3as68mjRvBy8ur7D/WIOguR6K/F5OETgeVH9gaAl3Ufx0+jE1btmHvnt3IyS6EozOzkkxkXMbMKjsyQVtb1KZCp5DuBPT++Mlk769EUwzvWm548qmn8VK/Pni4a9d/nPzqDFn2e+9sFQq9JlhytVqNnNxcXIm9gqjNW7B+3VrmbxfB3dsXbq4ukhF0ZaFTW6jWoCAnE25uLvj3m2+j9/M90bxZM27pnZ2dhVdWT+617EaFTk8VFRUJj6oX5ALcTkjA2bNnceTIMew/+CeuMhfFydmVicLVbsVtCC76wgLoitQIb9sOj3brinbMvYmIiOCT3uo6oaWLmc6lUaGTJa9uE08S+PnzF/DzxiicO3cWV6/dQH5eAZyZ5a4pt3aa5Oo0angwq960SSO0b9cOL/bri7bh4cIrqg90TsmyGxQ6DVcna04X7MlTpzBnzhycPnURjqoyC3Y3vFcToXNMFz47ACgp0qNjxzBMnjIF4WFh1crCc6tuSOjVYQJKJzEvL49b8AWLFmH3nmh4+fjCWeUkvELmXtRFWuRmZ6Lnc89i/NgxaNGiOTw9Pe1e9DzkaEjotADCr3Y7JTklBQf2H8CWbduxf98+KJzd4OKsEp6VMYaaTcRLdGo89dTT6NfnBXTv3p0vYtkr/K5tSOjkthh4StLk5uZi0+Yt2Lp1K2Jir7GTpoZKVb2jC9aAzryWaYBWaFs2b4wBAwaiZ4/n4M4e2xtGJ6O0nG1P0Mc4ffoM8zEnI/baTZSyu5Ejm4jUVP/bUtBxLaGABLOKbZo3wYyZM7gPb2/H1e5nHDTJTE1Nw8xZs/H4U8/g78vX+a1KYWApWKZy0DGkY0mpC2f+vozujz3Jj3VKSqpdzeHs2qJnZGTi119/xbKV3+BKbAybaPoJz8hYC5JLXk4mGjRsjBFD30HPnj25/y51o2K3Qj9x8hQ+n/c1zp09wyyLvkYtb0sBupMqFcydad0KH7w/Hl27dhGekSZ2J3SKBC1YtBgLFyxAqUJlk0QqmfIh6XD3Ra/F6NHv4f3xYyUbirQboZPAr169hnEfTcKRo8fg613zsvKkTGZOLrq074AFX3+Bxo0bS07wdiF0CnXu3PULvv56EeLib8HFxVV4RkZKaDRqNGnYEKPfG4Xne/aQVNKY5IVOGxtmzZqFP6IPorCgECp50UfSUOzd1c0dzz31BKZOnSyZhSZJC/369RuY8MEEnDx9Dk6qsiw0GelDktLptIiMCMfcuXPRqFFD4RnxkKTQ6S39ffEihgx5F7fv3GEWwkN4RsaeUBfmoxFzZZYvW4qWLZqLaqgkN0WmzcU//bQBL702CAnJabLI7Rg6d1fjbuOV/oPw889RohpPSVn0nJwcLF26DMtXfgsHhUKOjVcTKOZeWlKKUcOHYNiwYTwj0tZIRuhkyWfPnoM169bDUamS/fFqBsmsWFeEIW+/iQ8mTICrq20jZ5JwXfLz8zFj5iysWLUKCid50lkdoXPqpHLB4v9bgnnzv+LVFWyJ6Bb9TmIi5n45F2vXr5dzVWoIudkZ+Ncbr2P8+PGoExIijFoXUYVOIqcY+Y6dv0IlLwLVKLQaNfr07oXJkycjODhIGLUeorku5K6QJS8TuYswKlNToHO+fecuzJ03l2nB+m6MKEKnOipz583n7kqZJZd98poH89mdXbF6zVqmhXlW9yBsLnTarEwfbOmyZbJPLsM1QFqYP38+14a1sKnQ6apdvnw5vvv+R1nkMv+FtLDim++4Nqxl2W0mdJrzbt2+C/+34js4KuVyEzL3o3RyxtJV32PHrl+5ViyNzaIuFy/F4NUBr/P4qbziKVMexXo93NzcEPXTWrRq2UIYtQw2seiUhTh8xAhk5+TKIpcxCO0Wy8rOxbDhI3AjLk4YtQxWFzrlk1Oq7TUmdrmAkExFuLs64/qNGzxNgLRjKawqdNoZRAtClE8uZyHKmApp5fips1w7lqr/aTWh0x7Pbdt34tfd+/mmCWtBEwy9thClOjUvo1bM5hYanR4l7AmdVgd9cXFZkXyZSkFTN8o6pOOnZ+dSxw5osUbLjzP7ASVaNXRFxVaZOBKkGdpVRlsoLVEa0WqT0djYKxg8ZChu3U6w2vY3qg/ZtXMnTPzwffjVrs1TQWnFlRplxV65iqNHjvEGWYmpyUi6cwcKpRN7L3LSmDGKyDjoiuDrV5v3RQqqXQvhbSPQunUrhASHwNvbi8+zitix37p1OxYuXgpHhXXspbZIi3rsPXz7zQo0a9ZUGK0aVhE6XYHP93sV586etupGZkrt/XTqJLwz+O1yJ7lU3z09PZ3PD/6+cAGHDh/FoUOHoNYWw93NVbKlGcRAzc43NQmIaNcBzz75GNqEhfHOGEFBgbz7XXnExFzG8JGjcDM+wWpBBtpwHRkZia1RPwsjVcMqQp877yvMnve1VUtS0MUUEBCIJYu+4s2pKoJeTytvN2/ewuYt2zB//ly4uHrBy8erRlt4DbOaeVlpGDjodbwxaCCaN28OLy9PXjy/IsiQvPvuu9h38DAvW2ctsnLyMGPqxxg5crgwUnksLvTDh4+g/4ABcHKxbtXV4mIdOrZri5UrV/DenJUlNzcP8xcsxNo1P0FbrC2r11hDQp+8xSPzv4nuD3fGxI8+QqtWLfnjyrJu/c+Y/Ol0OFrZVtCcgCokh4eHCSOVw6L3bnIT5n+9EFDYIozoiKbNWlZJ5ARZrc8+mYLff9uOAQP6o05gMO/xQ4sW1RWyaUXMFfBhd9pnnnwU6378Ht99+02VRU5ERrZHKfPrrU2Jowqz536FzMwsYaRyWMyiU2myNWvWYuacL3jEw9rugK5Ij1UrF+PZZ54WRsyDumJs3b4dGzZEIYtZexczi++Qq0SWU6cri1oUs+9lfUEpgmAsikC2RwEHhRJKlRJO7C6jVCrMnk/Q+SnR6/Dcs89gQP/+6MIm8ZbYzkYBgbYdOvOMVGvOeUimjuy2MW3KJG6YKnv3tZjQqYxw774vIjUt3SYuAN3KovdFo0H9+sKI+VDMNi4uDjNnf44d27fB1z/IpJOnZb6qRqNlJ7uQKUrNx1y9aqNZ4wZo3LAh6oSGoJZPLfj5+bLJuQubCLvxSJSzEHYt0hbxCAP9fa2Ovmv58UxNS0PC7QRcvHwZ8XEJ7JV0Tpgv7OwCDyZSVxdnk95fQYEaTg7FWLp0KR577FF4eHhY1BB98OFErF6/gU/wrQldrNRBb9vmjWx+5i+MmoZFhE6/Ytpn022aeqtSlOLc2bMGIwLmQi1hxk+cyiMRKmGixeO57LNShQI9O2qOTJQqlSPC2rZDp44d0aZNa9SvVw+hoXW4mCwJTfxSU1P5riyaUFPTA2r6m5gQj6JSJzgxq19aQu3U2ftj4ich053EgVnxPn374Is5s/lFZg127NiJAf8egkB/65972ob33ujRmDJ5UqUuVosI/ey5c7xAvH9AoDBiXciCdurQDlEbfhJGrAMJiqzgpu27uBWmUFuArzfCI9ohIjwc9erXQ93QUKsJqCJoQYfmRTdv3cKV2Ks4ceokEuITkJyWwd77DX4Bjnj3LfR47jmToihV5cqVq7xnaWDIQ8KIdUlLTcHB/Xsr1S7SbKFTz6CBAwfh7MVYm3V7y80rwOSPxmPsmPeEEeuRX1CAffsO8Ca7VFotICCAuQzS7CZNws/Kzsbt27eZ8GPRkd1l6jPXztrvlTJSA4OCbCZ0WtRq26oZ1q1byztgm4LZQt+wMQofTprKW3/YitSkdKxevQp9+7wgjMiITf1GzbjLZM0J6b1QU+CZ06byagKmYNa7oqX2n9avJ+dVGLENpaU6Hh6UkQ7BbJJoy5wiEu7mTZvYpD2lbKACqix0mpjt278fFy9f5d3fbIsO3l7ews8yUsDPtxbThA2FzjQXc+U6Dhw8WBYkqIAqC52W02kpvVBdKIq/6uwi9w6VEh6eHjziYytIc6Q9ypA1ZVN1lYVOCyzUkVmsZrV3l7BlpAHVQ7c1pL29e/dyLVZElYROs/sFixdD6SpWF2F2NReWLczISIO8vAI2GbX9nV2hcsWCRYu4Jo1RJaGfOHESu3fvhbMVY7PGUSEru2o5DzLWISk5BY4iuLC0PXP3nmiuSWNUWujk+M+ZMwdePr7CiO1RMv88MdFy+wllzIPyXe4kxNsstPggpEXSpLFJaaXfGflDZ85cstniUHm4urrgUswl4ZGM2FCLeq1GnKAEQVokTRrz1SsldLpiNm/ZCkdncfO26Xa16/dok8JKMtYn9soVJnJxNUGa3Lx1q0FNVErotxMScOIk84VsGEYqD7pF6gqy+H5QGfE5fOQI3Lyqti/AYjBNnjl9BolJScLA/VRK6GfPnuX7L8Xyxe5FBwUuX74sPJIRC0qd/WXXLrgxd1JMSJOxV68zF+aMMHI/JiuWcl9OnDiB/Lw80Xyxe3F0VCB6/0HhkYxYXLt+HUmJd0Q3fqTJvNwcHDt2vNw8LZPfHXWM23fgEFSubsKIyDBf7NLf55GdnS0MyIjBX4ePoFQpjW4lpM3DR4+Xu1JqstCpTsvlmBheH08K0Law+g0st7tIpmoE+PvDxcVZEoEB0iZtxrkcGyuM/A+ThR61eQtUztK4cgvUGnTu1BHjx42Hj4+PMCojBj17PIfPpk5GbnamMCIu1EVjx85fhEf/w6R8dPq57kP14OnjJ7p/Tku9lLl24vBB+PnJzQSkAJ2Tr75egC/nzrXZVkpDkJwLcjORSJXZ7vE+TLLox9kklDbuii3y0tIS6LVqrP/xe1nkEoIE9e47Q/DkU89CrbFMUdCqQhotLNTw/bT3YpLQN0Rtgbu3+MLSF+sxdOjQKhexkbEe3t7eGD1yGEKCaovur7t7+/LN7fdSodBpT+jePbt5aQUxodtj82aNeU0SsTYjyxiHSgO+2KeP6NWLKaYfvWfPfd2pKxT61WvXkZ+rEd83hwP+9frraCBHWiSLs7Mzhg8fBpWjuEInrWZnFd7XNaNCoZ86dRqOLtYrIGkKVJ8k2NcTr7zysiRWZWUMQyUCv/jiC6SkZQgj4uCgUuDMmbPCowqETsu7J5nQaXFGTNIzMvD5519YrViRjGWh6gxtmjeClsrwiUWpHseOH+caJowKPTMrC6nJyaL2daZiRV0j26N790eEERmpQ3fdTz/9BIUFucKICDDvKelOArKzc/hDo0JPTkpGahZ7oYjugjo/F+PGjoHSivW3ZSxPh/bt0TGyI6+/IgpMs5l5hbwkC3/I/zVAwp07yMxIF2WLFEGRlkaNm/JyZzL2BYUbn3j0ERQXmV7a0JKQZtPT0nlqOX/M/y0HioXeSbiNnKxM0SIuRWoNnnzsUZPLjslIB6r1GN62LXz8avPVSltDms1IS8Xt+Fv87xsUOlVvJYsuJu6e7syatzW7VrmMOFAPpHqhIaIuIFGvUtKyQaHzDa9JqYBCnL2hFFKsHRCEpk2aiB7Dl6kaISHBCA7057t/RIFpN+52Ik9fMSJ0ZtET7rBbkEiTQCb00IBaCA2tKwzI2BsUQOjUuQtzkMVJ7SbtJjAfnbRsUOgaNom4duOGePnnzIgHBAbxvpYy9kt4WBiosZoYUIXnG3E3mZaNWPTCgkJkZaSL5zY4KNCiRUubtImRsR716tWDs6M4PjrF8zPTU3kTNoNCpzYitLokFjp9CVq2bCE8krFXAgMDRF0DoXY3qSmphoVeFmgXbxKo1BfzgyRj35BVDY9oz1e4xcGBt78xKPRkdhXAQbzcEoWipMo9RGWkBXUO1OlE8g6YhtPSMwwLPSODPekknn9M5SyoQZaM/VM3tI5oqQCk4aysLMNCp4pHTiL6VgqFo8VbGMqIg5e3N7QiCZ2ihkZ9dOrGRmITE3mhqHpAGzJK9eJEXihql5ufb2wymm7TTnMy1Re+j0AkH53aqmdlZhoWenpaGp8xy8hYBKU4WiINpxsTOvlUsusgYwkobwoitH0hyCvJzsk2LPSCgkLhJ3GgjLd7d3HL2C+8JpCI3oGezQ8M/nWxa3NQDvHd/X4y9g0ZLJWIETxq7GZQ6GL753ShqU1s0y4jbSiw4aQUN2fJoJrd3MQtKMpdl3zZdakOJCYmQSmi0GmuacSiizsRLdarkMlmyzL2T9ytm6IuPrq7uxoWuoe7h7h+ukqBDFnodg9tY7t5/aporjBp2NPD07DQfWvVErWGnpPCEXdE3rMqYz5UV6Wirs7WhDRcy8fHsNApRZbCMmKhZ5bg3NmLwiMZe4XSvcmqiwVpmLRsUOhenp6iui40RygoyCpbbJCxWxKTElGsFC8Lle4m3p5eRlwXPz/xqiwJZGbl8BRLGfvlUkwMnMRxzznFTOgBxiw6dZQoEStZnnBwRE5eIdLTxa3KKlN1yJrGXIqhGaEwYntIw7SBx7CP7l8bKBXPbSDXJS0jDbcT5AmpvZKTk4u01BThkUgwDfvX9jMsdH9/f/aveFEXCvJnpafjZtx1ccOcMlWG/POkjFx+dxaPUtSuXduw0MmvEfcN0p9X4NLlWKjVamFExl6gXKUb128gPSVZ1MVHR4XSeNTFzc0NvrUDRLWmTs7OOHTkGPLy84URGXuBQooX/r6A3Jxs0dK9SbtU1tDN3d2w0F1dXNCsSRM2axVP6LTfLz7uBq7EXhFGZOwFSvM+efoslM7iNVaj+p2NGzaEC3sPBoVOZX+DggJFT5V1cHLB1u33t9KTkT6pbBJ68MB+qJiOxEKnK0ZISAhUKifDQqd9fnWCmZ+uF29Vi/B0d8O69T/L8XQ7I2rTZiiV4omcw7T7UJ1ArmWjFj20Th3hkXiQf6cr1mHzlm3CiIzUycnJwQ8//AA3D/ELxAYFBXEtGxQ6ZZsFBYfAy8dHlI4F9+LlXQv/t3gh8uVJqV2wafMWpOXki5axSJBm/fwDUPehesbz0Yl6Dz2E2hR5EVno1I8mJbsQf+zeLfpFJ2McsuZz5syBr7e3MCIOpFmfWrUQEhzMHxsVelBwEPxrsTcsgQUblcIBa9etl3PUJQwZoY0bN0It7rSuDKbZgFqe3HUhjAqd8nj9AvwhhXVJug1e+DsG+6Kj5ZVSiRJ/+zY2bdsBJTNKosPeQlBIKHx8yu4sRoVOTnzHyA6iliq4C/lZ1LngP6vXITs7WxiVkQoUht65Yyf+vvC3NJo3OCjQvn27/9Zmr1DB1Bi1RCONshN04R0/dgSr16yVfXWJEXfzJpat/BYKJ2m0sS/V6rmRvkuFQm/SuBE8vFwkIyxPb198+tlsHPrrsDAiIzYUDfv000+Rnp4qiXqdpFWfWm5o2KCBMGKC0KmZ7ZNPPQ21pkgYERdyYbx8vPDRRx/icmysMCojFjRfmv35l4jedxDuEoibE4VqDZ5++hm4u7sLIyYInejbuxcKcqSzAYJKJ1AP1Dmz58grpiJDbuTan6Pg5uEpjIhPQU4m+rzQW3hUhklC79bt4bIa1xLyi5XMF/x9TzSWLFkqp/GKAFny6Oh9mD9/MRxKS/idVgqQRt3cXNC1axdhpAyThO7i4oIBAwdBXSitEnFu7h5Ysup7LF66XBa7jTl69Bimz5iBLHanl1KLzMKCfLz51tv/eE8mzxxefrEftEXiVth9ELIiLioVFixawnz2ScjNzRWekbEmv/+xG+PGjcX1uFtQiZiGWx46rQa9e/USHv0Pk4XerFlTNG/RQtRiNOVBu1dcnFXYumMnxo4dy1vtyVgPymMZOWIEUjKypSfy4mKEt23HtfogJgvd29sbj3V/GEVqaVl1giy7E7Psv+3ei5EjR+HGjTg5zm5h6G65ZOkyvDdhIoodlMw1EK+WoiF0GjUe7daVRwofxGShk5/esWNHeHh6SlZErm4eOHDoL7z+77ewfv16eQXVAtAd/MzZc/j440n4bPpMqBSOkuxtRZokbbZv354HTh7Egb2gXNVqyqlNfis+HsNHjMSly1clNQF5EF54Sa9Dj2efwdChQ9G2bbioKaP2SmZmFr799htEbduF27fi4OLqLpnoyoPQBRnWuiVWLFuCYCFj8V4qdfbrhoaiZYuW7MMKAxKF4uxKlQt+27sPL7/6GmbOml3uhStjmAMHDuL5F/pg0ZJlSElO5ndLqYqcoHysyMgOCAwMFEbup1JCJ6s4oP9rKNaYPyHV64uhZ/eSoiL2vaiQ/c4C/nNxSWnZc8wqm+Mi0UlRMj/SQeGERctWoUHDhli56lskJibK9RzLgY415ZIfPnwEr742EC/06YPE5FQ24XSV9N37LiVFBXixX1+Dd+5KuS4EZam9+OJLOH0hBs6qqu0JVBcWsklDF/To2ZPPkL3Z5IE2shayiW58fAIO7I/GtWvXERd/h42py/pUmgkl4ufn5aFxwwbo3asHuj3yCFq1bFFWrqwGuzWF7FzExd3E0ROnEL13Nw4ePIRSRwU7t9JIzjKFArUG3TpGICoqShj5J5UWOvHnn4fQ64W+8A8o/zZhDFpRc2MT20MHo7nIyoPeEs0Hjh09hvUbNuLIX0fh4W2ZPAoqOqlls/PgkBDUr1sXERHheObpp9GqVcsa1ZL91q14HDx0CPv37cPVuHheUoTyyClkKGUXpTxSUpLx5/69iGjbVhj5J1USOln13n364UJMLJyrUM4gOyMF169dg4+PjzBSPnRR0O107dp1mDxlCnz9gyxmfeljlzDRk2+n1+rg7e2Gfv1eQq+ePdCuXQRPCa5O0LGMZ8Zj3/4D+OY/a5B0+wZ0cILCgZ1+B2lGUkxBU6TFE90fxg//+c6oNqokdCKaWYKBA1+Hu5dxsZYHZUI+9cSjWLp4oclWdD+bHL09eChKmLGxxkmhw1BQoEZBfg5ThQ69evdB927dEB7WGnXYJJxa3VDYimqEUDL/3YR+qUBCpupY5ALqdFoUMJckNSUVly7F4PjJk9j5y69ITUqAytUDnp5eknv/VYGEW5iXja2bN6Nz505lgwaostCpZce7Q4fjyPETVfKhC9RF6P9KP4wZPRL165Xt1DYGnUjKQZ86bQa77d6y+gSJLIVGU8jDlKUKZ7Rh/nyjRg0REhgAf38/XriyXfv2aNG8ufA/xIHWCvbs2cMbm6UwYSenpiPhzh3EXrmCtJQk9goFnFxc4eriXO3mItSo97Hu3bCEGUxa0DRGlYVOccsNG6MwbfosHreurF9Hf1bPvlo2bYSRw4fj+ef/mZ/wICT2k6dOY8C/BqOkWGuzE8ffK7eYxSgt1qFIV4QOERFYuPBrSQh94aJF+PKLL+Hl4wuwiaSSuV0UYrU3X7sy0DmhKmCzpn/KXE7D0Za7VFnoBPWPHDpsGC5cvAxFFW+FdMHomCvTsXMkVixdgoAAKldtGHq7J06extNPP4XagSHCqO2gi40mtEf/3Ic6EijwRFDm5sSPJ/OKZlSHpyZA4ecOEWFYsWIF/PzYBV4BZpnEkJBgvPLKKxRgF0YqD7kgLu5uzI88hUGDBiGWzf4NXHscslIdI9tjzerVKMzPNfpaS0N/S6suwPofv5eMyAlXV1dMmTwJLVu1rDFt5SmIMGDgQJNETph97+/b5wU0b1wfRVrzinlQxdPLV6/zvYe0qFMRTzzxOPoPGAAtcydshYbdeV7r3x8RzG2RGr6+tTD0nbf5ZNmWF78YqNn8qXXzJnju2WeEkYoxW+iUKTZr5izkZptfWIhiuH8eOYZR4yZUuHpJ+wHfGfwWGjd4iIcJrQ25LFRQnlbf3NkdSGrQnZHWAyjfg95rdYUu4tzsDMyYOeO+PaEVYbbQCYo7jxszmr0B87MFXVxc8ddfRzBrzufCiGGaN2uGf73xOtRa6wu9lImndYsmaM8+q1ShBmu06aBU5E4l1iQvJxMfTXgf4WFhwohpWOSIkN88fNhQhISG8smluXh6uOPbb1bht99/N3obppn222+9ie4Pd4KmqOLJs1mwv9W7dx/uD0sVOg89e/aEi2P1tOg0/2jcpDmGvvtupSNKFrv0Ka48bvQIKBWOFvERlc7uWLx4CeLjbwsjhlm1fAnaNG8KrRXFrijR4pFuXYVH0oWiVt0efYz5sdIoT2IpSFNOTkqMHPaOyRPQe7GY0GmljWLhtJJoiZk/+ZzUqGvzli0V+uu0WLBo0UK0axtmFbHThDeiXfv/FqyUOgP7v4r8nOq16aS4WI/w8Aj06NGjSouFFnXmyKpP/PADODDrZxHY7enrxcuQlJwsDBimSZMmmPvlF2jFLLvOwmm4OXn5eOmllyp9uxSLyA4dUFJcvSw6aWrihHFVsuaExWctkZGRGDN2HDJzzN+R7+iogFqtwVdfL6zQHSIRNm3aFN99/x0eqhMKHbMAlojG0N8t0eSiTevWwoj0oUhYy9bhFpkvSQHS0pixY5m22gsjlcfiQifGvjcaXdp3gEZjfq0VL093fP+fH3Du/HlhxDhU+D06+nd29Y9F/YdCmdtTxFyPysf4SSSFhfT+S9G5cxfUrRta9oSdQElOlK9j75CGurDPQpoyB7NSAIxBK5yDhwzFrdsJUDmbl8RPi1Ht2rTA5s2bTM66I6FSYlP03mjs2XcAfx7cz5urOjm78Q0jD+ZGUOyZfHHKVS+hJk8NGuDx7t2ZG9AeHTtGolHDhsIr7YOvFizCrDlz4eMjjXqIVUHLLtRGDepj5Yol/G5tDlYTOgmHOpNNmjqN/2yuf1vEXJGff/wODz9cucgHTYzz8vJ4kXpK9T19+gz+iD6IvMz7/X6PWoF4/JGuzBJ2RId2EWjUqDFzATx59QN7zPr76aefMXL0e/DxrS2M2BckS9oTMHvmZ+jX5wWzz4HVhE5QGuWECROwdccvZhe7IfeDVv5WLl1kkRRd2kJ2F0ozrg752feyY8cOvPn2YCZ040lyUoVczn69e2Lu3Lnllq+oLFY1VfQGJ0+ejHbhbaAuNK+jHG22uH7lssVKRVML+Ltf1U3khCXEIRaklciIcEyd+onFPofV78kUe547by7q1qlj1uSIrPiNm/H4/fc/5F38JuAssXJxpkIbcmg+RJbc399ybpdNnM+mTZrgm29W8mQoc0JeCqUCCxYs5BunZYxDNSntDdKGL5s8L1+2lO/msiQ2m2W1btUK06dOQWlJaZVTBCiurndQYvSYcXyCKVN9IE2U6ksx9eOP0bKF5Xdt2UzoFHXp27c3Rg0fgpLiqueuU+XcUydP8FqASUkVr5jK2AekiZHDB6NPn15WWYG2mdAJCtUNGzYMrw/qz3OKq4qXjx+279yFz6ZP5yUcZOwb0sLbb/0Lw4cP58EBa2BToROenp6YxG5PI9iHMkfsTmyytfOXP/Du0FG8qpfM/dBGbnuANEBa+GDCBK4Na2FzoRN01X4w4X0Moq1wPE2gKj67A5xdnHExNpaXnaC6iimpqby2iUyZzyttSvm5f2PQIC5ya+f5K6YxhJ/vw9qbbGmRpk1YGNJSUxATEwOFsmqVsRQKR972b9eu3/Drb38gNyeL11l0c3VjrlL1q2ViKnFxcdgYFcVLPUsRrUaD3s/3wEcTP0JtPz9h1HpYdWXUFGhCSXF2auNHvrc58CpVRRqEhNbBQyGBfBm/Y6dOvJhoYGAQ7wtvbHGoLJGrkBcDysjIxJ3ERFy8FIO2YW3w3HPPCq+yD/bujcar/ftLcmWU3BW6m3/w4QeoE2KbkiWiC53Izy9gYp+HpcuWmS12gix6KcXr2ey9uNQBCr0GTkoFX3RyULmhWZPGCLhnMSI7KxtXmQVU57K7QUkJT/Iv1juh1MkRmvwsTJk0CWPHvCe82j6QqtBJ5EMGD8bkSR/btKirJO7rHh7umPjRhxg9ciT0uiKz/UtHJnAqqETCdlY6QunsxsvKFUOJInYBnzl3Hr/+sfe/X0dPnkZOdg5/vsRRBUeVK1SuSv5/Sx1U7IKxR/dHWj46nVO9TovRo0bik6lTbF65WDJnkCYjY5jVHPrOEHZA9GatoBqDfHYq10apune/VE7KaufLVyUH31pQOT89ez8jhr2DcWPHirLBXFJnl/Z+ktg/nz2TR2Yo70HGvqH8JmdnFaZP+wSjRo2yagjRGJIzYyTw/v1fxsaf1qJJg7pmZz3KiAedu9Agf2xYtxpvvDHIaotBpiDJ+zUtAVOkhIq7d+kUyXOTzfXbzYHy6mVMh84VVWOIbBeB1at/4MWGxHYNJe2YNmzQAMuXLccr/V7g6QNaWXAmI1ZZOtr+Rsl3fXv3xIoVy3nmqhSQtNAJykn+8ssv8fmsz/j+QUtsuK4J2KIe5YPQualXNxSzZ0zDvHnzJFUHR/JCJ3hxpF698M2q5ejUqROycmyYosvcqNLS6lu001Lk5eWjdYumWLliKV5+qZ/kdjjZhdAJ8vEaN26MKDZJnTLxfRQXFZZ1oLC2785+vYjTA0nDY+PszqHT5GPCuPewY/t2tGRzKymGau1G6Hehgzh+7BhEbYzixZJoJ41V83Icyk6ozP2QwCltPCK8NdasXoMPP3i/Sr2sbIXdCf0uVLWJKgJMmzIJdeqE8KVlawlSrImdVKHy4N7eXviYiXv50iV45JFuwjPSxW6FTlAdvgED+mNr1Aa8N3o0UlOTeTcEGetArmJGWiqGDH4Tv+3ajjff/DfvvW+NHUGWxq6FTlA+C5VKph4+hw/uR4fwlmVLzsydsZSFt8c4OrWhsQTcD2fHko4ptfDZuX0rZs2cgeCgILsqE2JQ6PZwld4Lvd+wsDCsX7cOc+fMRLu2rXk/HxKpOXKnBLGaCpUVoc8f3qYFpn8yGVFRG9Gt28OSnGwag7RRbYR+F+pr88rLL2HF8hWY9dmnvOEqdReuak0ZOqk1bdcS1aAsyM1Gl46RmMYEvmL5ct5Ch6r02iNGhW5vV+2D0EITNVqlrsLUQvvhzpF8N1Nlu+fpS/R2WcmrKnHsuz44xcPXrVuDlSuWYUD/1+ymAYIhSMsG1WyJ+oZiQx+QMiKphPL6taux+/df0KFtK+jUGt4Ul0JkFfnxpVo1WjRvJjyyH+rXrwcnpZNRt43738Ix0BZqmcAbY8umKOzYtgVPPP4435FVHXTAN9ywD2nwWNAt21p54WJBocLz5y9gy7ZtOHnyFK5cu4783FzeL5/y1O+FkslCgwOxZfMmu7NqOTk5GDFqDPYdOPiP/G86p0XsYvfwdEejhg1439SXX+yH8PCwaleHkkROVXmNCp2eqq6ZeyT4xKQknDl9GseOH8fhoydw7uxp4dmyAxTZsRNv9Uelqu3NstG5O3/+PGZ9/iUO7NvH7mB0mumrBE2aNmdzl0fQpUsnhIeF8yYH1cFylwe5cOSjGxU6QVd/dZ+M0f5YKnF369YtJCTcQX5BAS902axZU+762KsI6NTmsLtVzKUYXIq5zLu61XuoLpo2bcbdEim3krQEZMnvnrsKhU7QEru1y1/IyFgScsHudcNMEjpREyy7TPXgXkt+F5OFTtBLybJXtwmqTPWAxE1WvLw1oEoJ/S70X0jsNKGjn6vwK2RkzIZPMmkxyNGRi7w8gd+lSkKXkbE37Hv5U0bGRGShy9QAgP8HkeMeHFhDLW4AAAAASUVORK5CYII=;" parent="1" vertex="1">
          <mxGeometry x="173.04" y="500" width="28.65" height="28.5" as="geometry" />
        </mxCell>
        <mxCell id="dbFyvB4pgqcIV-iJ2E-Y-18" value="" style="shape=image;verticalLabelPosition=bottom;labelBackgroundColor=default;verticalAlign=top;aspect=fixed;imageAspect=0;image=data:image/png,iVBORw0KGgoAAAANSUhEUgAAAf8AAAIDCAYAAAAKSRdBAAAAAXNSR0IArs4c6QAAAARnQU1BAACxjwv8YQUAAAAJcEhZcwAADsMAAA7DAcdvqGQAABuHSURBVHhe7d19jF3lfeDxB5uA38SMGS9u/TYKSEPXW7/QNlLttZG2TnYTydP9C1IJp4vULmww/zRIZGUipdoNlkAiVSWcLmlWoo0jBee/2qtEKo60Y2ojlSzYzkays0E7Y5uskceeQQYbMGLv7/pMsId5uXfmvpx7n89HGt3nXCPBjNF8z/Oc55x7y8cVCQDIxoLiFQDIhPgDQGZqXvYfGxsrRrPr7e0tRlMbHr2ahk6Npdd+dTGdufRhOnvpgzR+5aPK64fFPwEA3WfN8s+ktXfelu5YtDCtrYy33L208t5tadv63y7+iZk1qsUtif/4lWtp/9G309DpsXTk1Hj1GAC4rmfxrWn7vT3pjzevSNsG7kj9fYuKP7lZR8T/4BsX0r7Db6Ujp8erxwDA7OJE4Ctbfis9tOWu4p3rShv/d65+lPa/9m56/uVzZvgAMA+xArD786vTzk13Vseli39E/3uvjKa/PXKhOgYAGiPCv2vryvTYtjuKd2bX9PgfffNy+osD56ob9wCA5li7/Lb0xBdWpgd+f/qwT2ha/GOG/81/+HU68LNLxTsAQLM9+AfL09c+f1f1ZGA6TYn/z9+6kv7s70fM9gGgDSL83/vTdel3Vy0u3rnZTPGf00N+vvdPo+nf/fX/EX4AaJMzlQZHi//2lQvFO7WrO/7ffvnt9M1/eKs4AgDa6S8P/rra5nrccunSpZqW/WP54OsH3kzPHz5XvAMAlMXuHavTsw/eXRzNvFG/5pm/8ANAee2rNPrJSqtrUVP8YzlB+AGg3OIEYO+hkeJoerPGPzb3PfeP54sjAKDMnj44POuEfcb4x+18NvcBQGeJS/XR8OlMG/+4hSDu4wcAOs+fVxr+zpWpH7c/bfxjqd99/ADQmWIS/82Dvy6ObjZl/A+8din96Gczf5APAFBu8fj9+PydyaaM/3N1PiwAACinrx0496nl/0/FP27rs9wPAN0hlv8nPwL4pvjHP/DSaz6hDwC6Sdy2f+Psf0E8tnfia+jND836AaDLRPi//9rl3/T+ppn/84fd0w8A3WjfTz9p/G/iv//o+TQyerU4AgC6yfh719Kh4xer40/i/6pH+AJAN3v+8NnqazX+w5UZ/5FT49U3AIDuFK2PFYBq/IUfAPLw/WPnr8f/0PHR6hsAQHcbOj12Pf5DZv4AkIVXTr+TFpw4czmNX7lWvAUAdLPqNf/hC+8XhwBADha8fNItfgCQkwVnxz4shgBADhaMX735Y/4AgO624MxFM38AyMkCn+IHAHn5zbP9AYA8iD8AZEb8ASAz4g8AmRF/AMiM+ANAZsQfADIj/gCQGfEHgMyIPwBkRvwBIDPiDwCZEX8AyIz4A0BmxB8AMiP+AJAZ8QeAzIg/AGRG/AEgM+IPAJkRfwDIjPgDQGbEHwAyI/4AkBnxB4DMiD8AZEb8ASAz4g8AmRF/AMiM+ANAZsQfADJzy5JHhj4uxpRc75JbU8/iyteShdXXyUZG30/Do1eLIwCYmviXUER+w5qlaeOaZWnjusrr2mVp3Z23V9+vxdh719LJs++m8crr0KnxdOLs5XTk9HjxpwDkTvxLor9vUdq5qS8N3tdXDX+toa9HnADsP3q++mqFACBf4t9GEfiH/nBlNfjbB3qKd1vjxNl3076XzzkRAMiQ+LdBhH5w84r00Ja7mjLDr9f+Y+fT3oMjTgIAMiH+LRTRf2qwv+Wz/Fo5CQDIg/i3QMzun3ng7rRr68rinXJzEgDQ3cS/yXbvWJ327FxXiuX9ekT4v3P4rfT84XPFOwB0C/Fvkti9/8LDA6Vd4q9VbAh89MXTVgEAuogn/DXB4Oa+dPQb93V8+EN8Dz9+YkPataUzLlkAMDvxb7A9g/3ph19d33HL/DOZWMWIzYoAdD7xb5CIfTWQO9cV73Sf2LvwUuXEpqeLTmwAciT+DRDh//ETG7NYGt+5uS/9pPK9OgEA6FziP0+xJB7X9zeuWVq80/3iez1W+Z7jeweg84j/PMSM/4ePrc8ygvE9x/duBQCg84j/PMRSf04z/snie489AAB0FvGfo2cfvCfr8E+IWwHjZwFA5xD/OYjb+XbvWFUcET+Lx3esLo4AKDvxr1Nc6+7m2/nm6pkH704b11oJAegE4l+H67f0bSiOmCwebmQDIED5iX8d9uzsd3vbDK6vingKIEDZiX+NImyu888ufkbd8JkGAN1M/Gtkub92PgMAoNzEvwbx2F7L/bWLmb9PAQQoL/GvwZ5Bu/vrFT8zm/8Aykn8Z2HWPzfxM9u15a7iCIAyEf9ZmPXP3W4P/gEoJfGfQXx8rVn/3MXPzs5/gPIR/xl4ZO382fkPUD7iPw2z1saIn6GNfwDlIv7TEP7GsfEPoFzEfxq7trpPvVEGN68oRgCUgfhPIZapzfwbx9I/QLmI/xSEv/F2brqzGAHQbuI/BfFvvE1rlxUjANpN/Kew/V7xb7TtA73FCIB2E/8pbFpjltpoG9cuLUYAtJv4TyJSzeNpiQDlIP6TrBOoptk2cEcxAqCdxH+S/jtvL0Y0Wq/b/QBKQfwnWbfCzL9ZLPsDlIP4T9K72Oy0WTzoB6AcxH8SS9PN48QKoBzEfxKz0+bpWbywGAHQTuIPAJkRfwDIjPhPMnzhajECgO4k/gCQGfGfZOzKtWJEow1ffL8YAdBO4j/JiGX/phl/z4kVQBmI/yRmp80zPOrECqAMxH+Sk2feLUY02vCFD4oRAO0k/pPE7NTydHOMXDTzBygD8Z/C/xWppjhx5nIxAqCdxH8KR06NFyMa5cipsWIEQLuJ/xSOnBb/Rjtx1l4KgLIQ/ymIf+MNnXqnGAHQbuI/hdjw5wSgsY780rI/QFmI/zQOvn6hGDFfcb3fHRQA5SH+09j/6tvFiPnaf8zPEqBMxH8alv4bx88RoFzEfwZPHxwuRszV/mPnPdYXoGTEfwYxYzVrnZ/9R88XIwDKQvxnIV5zFxv9nDwBlI/4z8Ky9dzZ6AdQTuJfgycPvFmMqFWcMMWJEwDlI/41OPTGqOXrOv3J3/yiGAFQNuJfoydf+lUxYjYx4z9xxrP8AcpK/GsUH0zz/OFzxRHTieX+vQdHiiMAykj867D30IjNf7OI8PsZAZSb+Nchnvr3pedOek79NGK53yY/gPIT/zrFrPbpQ578N5nlfoDOIf5zsO/wW67/32CsWBGx3A/QGcR/jr5+4E1P/yv8p787LfwAHUT85+HJH71ZvQsgZ3sPDqeDb4wWRwB0AvGfh9j498XnTmR7AhDhf/qQ6/wAnUb852niBCC3JwAKP0DnEv8GmDgByGUT4KMvnhZ+gA4m/g0UmwCfrsyIu1Xs6o+THPfyA3Q28W+weApgBLLbdr/Hvoat33rdBxwBdAHxb4IIZNz33i23Au47fC5t+a//y+18AF3iliWPDH1cjGmCXVtWpj2D61J/36Linc4Rs/34NEOzfYDuIv4tEOF/bMeq9PiO1cU75RbX9vceGq4+yRCA7iP+LRQnAXt2rku7tq4s3imXiH4s8X/np29VxwB0J/Fvg4mTgO339pTicoDoA+RF/Nss9gTs2nJX5USgt3indYZOjVXvTnBNHyAv4l8SsQKwfaAn7dx0Z9q4bllTVgRiVn/ojdE0VIn9/zg+apYPkCnxL6mNa5amdSsWpfsHeivjJemOJbemTWuXFX86u+ELV9OJM5fTyMUP0vHK6yuV4LtVD4Ag/h2mt3IS0LP41up4Xd/t1dcQjxgev/JR5euaGT0AMxJ/AMiMJ/wBQGbEHwAyI/4AkBnxB4DMiD8AZEb8ASAz4g8AmRF/AMiM+ANAZsQfADIj/gCQGfEHgMyIPwBkRvwBIDPiDwCZEX8AyIz4A0BmxB8AMiP+AJAZ8QeAzIg/AGRG/AEgM+IPAJkRfwDIjPgDQGbEHwAyI/4AkBnxB4DMiD8AZOaWJY8MfVyMAahT75JbU8/iyteShdXX0FO8d6OR0avFKKXxK9fS+HsfpeEb3oNWEn+AaUTY1/XdnjasWZb6K6/9Kxal3krUN6xdWv3z/r5F1df5ipOAkdH3KycE19LxM5crx+9XTxZOnn03jVXeg0YTf4CKjZWgR+Q3rV1WjJdW499uEf84CThx5t00dHosnay8WjFgvsQfyE5EfdtAT7p/oLdUoa9VxD9OAg6+MZpOnL1cPTGAeog/0PUi7BH4wc0r0vZ7e9LGyribxMnAkdPj1ZOBVyqvLhUwG/EHulIE/6E/XJkG7+vruJn9fB2qnATEicCh46NOBJiS+NfooS0r03cfHiiOmMkjL55KPzj2dnFUbu++sL0YcaNO+ju80Y3B3z7QU7ybt/3Hzl8/Eah8wQT3+QMdLYK/c3Nf+skTG9O5v9qSnv3y3cJ/g12VictLX12ffrH3c+mpwf6G3aFAZxN/oCNF4J998J70v5/+XDVugj+ziP6eneuqJwEvPDzg55U58Qc6SkQrZvnxtXvHqqyu5TdKrAZM/AxjTH7EHyi9CHwsWceyfgTLrLUx4ucYqwCxGuAkIC/iD5TWRPRjaT+WrM3ymyMuCUycBOzctKJ4l24m/kDpiH57xEnAS4/9y+oeChsDu5v4A6Uh+uUQd09MbAx0EtCdxB8ohbjmLPrlEn8nP35ig/0AXUj8gbaa2L0fs0zRL5+J/QBWAbqL+ANtEaF/4T8M2L3fIawCdBfxB1pu947V1SX+XVuFpJNYBege4g+0TAQjZvrPPni3Jf4ONrEKEB+HTGcSf6AlYrZ/9Bv3WeLvEnEid+wbv1e9O4POI/5AU8UM/4dfXW+236Xi7oz4jIUef7cdRfyBpolZfsz2Bzf3Fe/QjeIzFo5V/p7tA+gc4g80RSzzx/V9QchD/D3HPgB/351B/IGGqt7C9/BAdZmfvFzfB3CfjYAdQPyBholf/rHM717wfMW1/598baPbOEtO/IGG2LhmqWVfquIEIB7g5ASgvMQfmLfY0Pdj1/eZxAlAeYk/MC/xyz1u5XMbH1NxAlBO4g/MWezoj1/uMJP4fyQ+JpjyEH9gTvYM9tvRT82+WzkBcBdAeYg/ULdYxn1q57riCGY3cReAfSHlIP5AXWJzn6V+5iJOAOKOEI8Cbj/xB2oWs7b/JvzMQ/w/9NJX1xdHtIv4AzWJX9oxa7Orn/mKz3yIDwOifcQfqMkPH1vvei0NEx8G9PiO1cURrSb+wKxiZ388wQ8aKT4O2Alle4g/MKP45WxnP81gA2D7iD8wo/jlDM1y/eSyvziiVcQfmFYs91uWpdni+n9sAqR1xB+YkuV+WumFhwcs/7eQ+AOfcv+9vekZj+6lhSz/t5b4A5+ya8vK6pP8oJUs/7eO+ANQGpb/W0P8ASiNWP5//I9WFUc0i/gDUCq7d6x2l0mTiT8ApRLL/nsG3WnSTOIPQOnEplOb/5pH/AEopacG3frXLOIPQCnFzN/svznEH4DSMvtvDvEHoLTM/ptD/AEoNbP/xhN/AErN7L/xxB+A0tu1dWUxohHEH4DSG9zU55n/DST+AJRehN8z/xtH/AHoCPHMfxpD/AHoCDH7t/GvMcQfgI7htr/GEH8AOsbGNUtt/GsA8QegY0T4d225qzhirsQfgI4yuHlFMWKuxB+AjhKb/iz9z4/4A9BxLP3Pj/gD0HEs/c+P+APQcSz9z88tSx4Z+rgYM4OHtqxM3314oDhiJo+8eCr94NjbxVG5vfvC9mJENxq+cDWNXbmWRiqv41c+qn6Nvfdh8aef6O9blHoWL0y9lZhsWLus+kr5ddLvmrIR/xqJf+3En1Ybe+9aOnHmcjp59r10PF4rXyMX36++PxfVk4A1S6uzy/srX9vv7S3+hDLZf+x8evTF08UR9RD/Gol/7cSfVhg6NZYOvXExnTh7OR05PV682zw7N/dVP1kuXq0MlMN45eRu1V8cK46oh2v+QMeI4D/50ptpdeUX/pe+fTLt++m5loQ/HHpjND36d6er/+6YbcYKA+0V1/zjkg31E3+g1GLp/umDwzcFf67L+Y0Sy81bv/V6+uJzJ9KRygkJ7bNz853FiHqIP1BKMcuPGXZEf++hkbYHfyqx6vDFyglJnAQMj14t3qWVNq5dVoyoh/gDpRIRjZjGLD9m2J0gTgLW7/nn9OSBX1WvQ9M6sQ+D+ok/UAoxs494RkRbdR2/0fYdfitt+dbrHfvf34lc958b8Qfabt/hc+lfPfXP1Xh2uomVi9inQGtsG7ijGFEr8QfaZiKUTx54s5TX9Ocj9il8+W9+4TJAC2xy3b9u4g+0xf6j13fMd/MSedweGJcBbAZsLpv+6if+QMvFtf24Z77bZvtTifB/6bmTTgCaaOOapcWIWok/0DIR+1jm74Zr+/VwAtBcNv3VT/yBlojwdfsy/0ycADTXhjWW/ush/kDTCd918f3/yXdsAmyG/hW3FSNqIf5AUwn/zU6cfbd6dwONZdNffcQfaBrhn1o8ufD5w+eKIxpho2X/uog/0BTCP7OvV2b/sQpAY/T33V6MqIX4A00R17aFf2au/zdO7PiPL2oj/kDDxX38ZrWzi5Mjy/+N43a/2ok/0FDxnP7c7uOfj3gMsBWSxtiwZkkxYjbiDzRMRCxiRn0effF0MWI+ei3710z8gYaJDX45PLK30eLBRz4GeP4s+9dO/IGG2Htw2PL1PPgI4Pmz4a924g/MW0R/309d558Ps//567/T7X61En9g3vYeHLHc3wBm//OzboVl/1qJPzAvMeuPJ9Yxf2b/tIr4A/Nip3pjHXz9QjGiXjb81U78gTk7cmrMTLXB9r/6tqf+0XTiD8zZ0+7pb7gI//ddRpkzs//aiD8wJ3Gt36y/OQ69MVqMoDnEH5iT2OFPc8RJlaX/uXGvf23EH6hbhOngcbPTZrL0Pzc9ixcWI2Yi/kDdIvxmps1l6Z9mEn+gbvuPmpU2W3wkshMsmkX8gbrY6NcaEf44AaA+PYs/U4yYifgDdRH+1hk6NVaMqFXPElmrhZ8SUJeDr18sRjSbEy2aRfyBuhz5pdloq1j2p1nEH6hZPM7XJrTWiZ/18IWrxRE0jvgDNRuyDN1ylv5pBvEHaiZErRd3V0CjiT9QM9egW2949P1iBI0j/kBNYgbqen/rnTx7uRhB44g/UJMRG8/awsyfZhB/oCaW/NsjVlusuNBo4g/UxMaz9hkTfxpM/IGanDhj5t8uIxct/dNY4g/UZPzKR8WIVvOgHxpN/IGanDhj13m7jF2x7E9jiT8wKxvO2svPn0YTf2BWZp7tJf40mvgDs3KPf3uN2W9Bg4k/AGRG/AEgM+IPzMptftBdxB+YlQ1/0F3EHwAyI/4AkBnxB4DMiD8AZEb8ASAz4g8AmRF/AMiM+ANAZsQfADIj/gCQGfEHgMyIPwBkRvwBIDPiDwCZEX8AyIz4A0BmxB8AMiP+AJAZ8QeAzIg/AGRG/AEgM+IPAJkRfwDIjPgDQGbEHwAyI/4AkBnxB4DMiD8AZEb8ASAz4g8AmRF/AMiM+ANAZsQfADIj/gCQGfEHgMyIPwBkRvwBIDPiDwCZEX8AyIz4A0BmxB8AMiP+AJAZ8QeAzIg/AGRG/AEgM+IPAJkRfwDIjPgDQGbEHwAyI/4AkBnxB4DMiD8AZEb8ASAz4g8AmRF/AMiM+ANAZsQfADIj/gCQGfEHgMyIPwBkRvwBIDPiDwCZEX8AyIz4A0BmxB8AMiP+AJAZ8QeAzIg/AGRG/AEgM+IPAJkRfwDIjPgDQGbEHwAyI/4AkBnxB4DMiD8AZEb8ASAz4g8AmRF/AMiM+ANAZsQfADIj/gCQGfEHgMyIPwBkRvwBIDPiDwCZEX8AyIz4A0BmxB8AMiP+AJAZ8QeAzIg/AGRG/AEgM+IPAJkRfwDIjPgDQGbEHwAyI/4AkBnxB4DMiD8AZEb8ASAz4g8AmRF/AMiM+ANAZsQfADIj/gCQGfEHgMyIPwBkRvwBIDPiDwCZEX8AyIz4A0BmxB8AMiP+AJAZ8QeAzIg/AGRG/AEgM+IPAJkRfwDIjPgDQGbEHwAyI/4AkBnxB4DMiD8AZEb8ASAz4g8AmRF/AMiM+ANAZm5Z8sjQx8WYGfT3LUrbBnqKI2byyunxNDx6tTgqt4e2rCxGzGRk9P105PRYcUSr+f1Tu076/dNO4g8AmbHsDwCZEX8AyIz4A0BmxB8AMiP+AJAZ8QeAzIg/AGRG/AEgM+IPAJkRfwDIjPgDQGbEHwAyI/4AkBnxB4DMiD8AZEb8ASAz4g8AmRF/AMiM+ANAZsQfADIj/gCQGfEHgMyIPwBkRvwBIDPiDwCZEX8AyIz4A0BmxB8AMiP+AJAZ8QeAzIg/AGRG/AEgM+IPAJkRfwDIjPgDQGbEHwAyI/4AkBnxB4DMLFiz/LZiCADkYEHP4oXFEADIwYK1yz9TDAGAHCxY0yv+AJCTBetXLS6GAEAOFmy9Z2kxBABysGDDZ+9KPYtvLQ4BgG7Ws+TW6/f5339vT/UNAKC7bRu443r8tw2IPwDk4N9vXnE9/l/ZsrL6BgDQ3WLCX41/rP9vt/QPAF0tWt/ft+iTZ/vv/jerihEA0I0mVvp/E//B+1bY9Q8AXaq/7/b00OT4h907zP4BoBs9NdhfjCbF//Edq83+AaDLxKz/xjv7bop/bPwz+weA7hLL/bHRb8Itly5d+rgYV71z5aP0hb/+ZTp76cPiHQCgU8Wn9776n3+nOLruppl/uGPxwvRXD6wpjgCATvbEFz79LJ9PxT9svWdZeuD3eosjAKATPfgHy9MDv7+8OPrElPEP/+WPV6U1y33WPwB0olju/9rn7yqObjZt/GP5/7//6Se3BQAAneN7lYavXX5bcXSzaeMffnfV4vSXg79VHAEAneCZB++uNnw6M8Y//Mdt/2LaZQMAoFz27FxXfW7PTGaNf4idgrv/yP3/AFBmEf4bn+Q3nZriH5798j1OAACgpKLRtYQ/1Bz/ECcAcVYBAJRHtDkaXau64h/irOKZBz9bHAEA7RSb+2qd8U+45eOKYjyjsbGxYnTdz9+6kv7s74c9BhgA2iDu44/b+abb1d/bO/3D+uYc/3Dm0gfpuX88n370s0//GQDQHH/+r/vSE/92Zbpj0cLinU9rWvwnvPTaxfTtl9+2CgAATRSz/W8/sKb6GP7ZND3+E2IV4MDPLjkJAIAG6lm8MO3esTp95XPLZpzt36hl8Q9xKeB/vvlh2nf4XBoZfb94FwCo10T0H//86sr41ppbHFoa/zDxL/z+0f+XfvDq2+nIqfHqMQAwu+0DPZXor0qDm1cU71zXEfGfMDx6NQ2dGkuHjl+snAiMpfErHxV/AgDEDH/7vb3p/kr0d21dWZ3lT6Wj4j/Z8TOX08iFq+nln7+dzlz6ML1z9aN05uIH9goA0NXio/Ij9GuW31bdvLf+txdVN+9t+Gxtn6HTmBan9P8BjtgxPhR8ya0AAAAASUVORK5CYII=;" parent="1" vertex="1">
          <mxGeometry x="170" y="450" width="34.73" height="35" as="geometry" />
        </mxCell>
        <mxCell id="dbFyvB4pgqcIV-iJ2E-Y-23" value="" style="endArrow=none;html=1;rounded=0;exitX=0;exitY=1;exitDx=0;exitDy=0;entryX=1;entryY=0;entryDx=0;entryDy=0;" parent="1" source="dbFyvB4pgqcIV-iJ2E-Y-9" target="dbFyvB4pgqcIV-iJ2E-Y-9" edge="1">
          <mxGeometry width="50" height="50" relative="1" as="geometry">
            <mxPoint x="464" y="280" as="sourcePoint" />
            <mxPoint x="514" y="230" as="targetPoint" />
          </mxGeometry>
        </mxCell>
        <mxCell id="dbFyvB4pgqcIV-iJ2E-Y-24" value="LANDING PAGE" style="text;html=1;align=center;verticalAlign=middle;resizable=0;points=[];autosize=1;strokeColor=none;fillColor=none;fontSize=50;" parent="1" vertex="1">
          <mxGeometry x="219" y="15" width="390" height="70" as="geometry" />
        </mxCell>
        <mxCell id="dbFyvB4pgqcIV-iJ2E-Y-34" value="" style="rounded=0;whiteSpace=wrap;html=1;fontSize=30;" parent="1" vertex="1">
          <mxGeometry x="154" y="640" width="526" height="450" as="geometry" />
        </mxCell>
        <mxCell id="dbFyvB4pgqcIV-iJ2E-Y-36" value="&amp;nbsp; &amp;nbsp; &amp;nbsp; woojinjeon.me" style="rounded=1;whiteSpace=wrap;html=1;align=left;" parent="1" vertex="1">
          <mxGeometry x="154" y="640" width="430" height="30" as="geometry" />
        </mxCell>
        <mxCell id="dbFyvB4pgqcIV-iJ2E-Y-37" value="-&amp;nbsp; ㅁ X" style="rounded=0;whiteSpace=wrap;html=1;" parent="1" vertex="1">
          <mxGeometry x="584" y="640" width="96" height="30" as="geometry" />
        </mxCell>
        <mxCell id="dbFyvB4pgqcIV-iJ2E-Y-38" value="" style="rounded=0;whiteSpace=wrap;html=1;fontSize=30;" parent="1" vertex="1">
          <mxGeometry x="154" y="1180" width="526" height="450" as="geometry" />
        </mxCell>
        <mxCell id="dbFyvB4pgqcIV-iJ2E-Y-39" value="&amp;nbsp; &amp;nbsp; &amp;nbsp; woojinjeon.me" style="rounded=1;whiteSpace=wrap;html=1;align=left;" parent="1" vertex="1">
          <mxGeometry x="154" y="1180" width="430" height="30" as="geometry" />
        </mxCell>
        <mxCell id="dbFyvB4pgqcIV-iJ2E-Y-40" value="-&amp;nbsp; ㅁ X" style="rounded=0;whiteSpace=wrap;html=1;" parent="1" vertex="1">
          <mxGeometry x="584" y="1180" width="96" height="30" as="geometry" />
        </mxCell>
        <mxCell id="dbFyvB4pgqcIV-iJ2E-Y-41" value="" style="rounded=0;whiteSpace=wrap;html=1;fontSize=30;" parent="1" vertex="1">
          <mxGeometry x="154" y="1680" width="526" height="450" as="geometry" />
        </mxCell>
        <mxCell id="dbFyvB4pgqcIV-iJ2E-Y-42" value="&amp;nbsp; &amp;nbsp; &amp;nbsp; woojinjeon.me" style="rounded=1;whiteSpace=wrap;html=1;align=left;" parent="1" vertex="1">
          <mxGeometry x="154" y="1680" width="430" height="30" as="geometry" />
        </mxCell>
        <mxCell id="dbFyvB4pgqcIV-iJ2E-Y-43" value="-&amp;nbsp; ㅁ X" style="rounded=0;whiteSpace=wrap;html=1;" parent="1" vertex="1">
          <mxGeometry x="584" y="1680" width="96" height="30" as="geometry" />
        </mxCell>
        <mxCell id="dbFyvB4pgqcIV-iJ2E-Y-44" value="" style="rounded=0;whiteSpace=wrap;html=1;fontSize=30;" parent="1" vertex="1">
          <mxGeometry x="154" y="2230" width="526" height="450" as="geometry" />
        </mxCell>
        <mxCell id="dbFyvB4pgqcIV-iJ2E-Y-45" value="&amp;nbsp; &amp;nbsp; &amp;nbsp; woojinjeon.me" style="rounded=1;whiteSpace=wrap;html=1;align=left;" parent="1" vertex="1">
          <mxGeometry x="154" y="2230" width="430" height="30" as="geometry" />
        </mxCell>
        <mxCell id="dbFyvB4pgqcIV-iJ2E-Y-46" value="-&amp;nbsp; ㅁ X" style="rounded=0;whiteSpace=wrap;html=1;" parent="1" vertex="1">
          <mxGeometry x="584" y="2230" width="96" height="30" as="geometry" />
        </mxCell>
        <mxCell id="dbFyvB4pgqcIV-iJ2E-Y-47" value="Woojin Jeon" style="text;html=1;strokeColor=none;fillColor=none;align=center;verticalAlign=middle;whiteSpace=wrap;rounded=0;fontSize=30;" parent="1" vertex="1">
          <mxGeometry x="304" y="362" width="226" height="40" as="geometry" />
        </mxCell>
        <mxCell id="dbFyvB4pgqcIV-iJ2E-Y-50" value="" style="shape=image;verticalLabelPosition=bottom;labelBackgroundColor=default;verticalAlign=top;aspect=fixed;imageAspect=0;image=data:image/png,iVBORw0KGgoAAAANSUhEUgAAAg0AAAHtCAYAAACatE2LAAAAAXNSR0IArs4c6QAAAARnQU1BAACxjwv8YQUAAAAJcEhZcwAADsMAAA7DAcdvqGQAAKK3SURBVHhe7b0FuB1Ftr9d/4QIAcIlmRBIkEET3AYJw1wsuDuDBgbXwQZ3H3xwh+DuroO7e2BwH5KbQBzyffzqVOX0qVOyVu/ee/fee73PkyfdneRNd63q7nW6q1f9v9E///L/qQC9evZQ00wzjVkL83//939mqSO//vqrWWrnD3/4g1mK43P6fNi///mf/zFrcVxnyAfyOGM+wHWmfIDjpPgA1fnf//7XLLXj8wGKE/vnxijkAymnPd6sM+YDMWe2/awz5QMhpxsPOCk+4HP64vvLL7+YpTSu0+fD/rkxipF1hnwgjzPmA1xnygc4zumnn94steOLL9WJ/XNj5PMBitMeb9YZ8oGUM9t+1hnzgZjTjQecKR8IOX3xlftRmDG/jDVLHelifvdCCVCI1A5zEZ/4OIhPfBzEJz4OrebLEk0a8iIBEh8H8YmPg/jEx0F8lflcCk8aJEDi4yA+8XEQn/g4iK8yn49CkwYJkPg4iE98HMQnPg7iq8wXorCkQQIkPg7iEx8H8YmPg/iK91kKSRqkQcXHQXzi4yA+8XEQX/G+LBUnDdKg4uMgPvFxEJ/4OIiveJ9LRUmDNKj4OIhPfBzEJz4O4ive5yNa3GnKr5PNUmey/wG1kAegFt6gFvIA1MIb1EIegFp4g1p0A1ALb+RxxnyA60z5AMdJLQRFdWL/3Bj5fIDitMebdYZ8IOXMtp91xnwg5nTjAWfKB0JOX3yphaB8Tp8P++fGKITrDPlAHmfMB7jOlA9wnBQfoDqphaUAxYn9c2MU8oGU0x5v1hnzgZgz237WmfKBkNONB5wUH/A5ffEt+/2oe89pzVJHcj1pCO1wXsQnPg7iEx8H8YmPg/jiPnbSIA0qPg7iEx8H8YmPg/hq72MlDdKg4uMgPvFxEJ/4OIivPj5y0iANKj4O4hMfB/GJj4P46ucjJQ3SoOLjID7xcRCf+DiIr76+ZNIgDSo+DuITHwfxiY+D+OrviyYN0qDi4yA+8XEQn/g4iK8cPtZASGlQOuITHwfxiY+D+MTHoUgfOWmQBqUjPvFxEJ/4OIhPfByK9kUrQk6aMF7/nvoPYlWo3B1GFSrKDoecvgaQSnZprDPlAxwnxQeoTqlkl/aBkDPr+//+v7ZT++eff9Z/H79PnjxZL+PvjRkzRk2cOFGNGzdO/73x49vOd/w+adIkvdytWzc17bQdK8Ohkl2PHj1U79699b5iv/H3ZphhBr0800wz6d//3//7f532M7t/FuugknWGfCCPM+YDXGfKBzhOqawa94GY040HnCkfCDl98W2W+1GXabqZpY5Ek4ZePXuQGjT0n/t2mFo60+cMNUCq41lcZ6xB8zhjPsB1pnyA46T4ANVJvYABihP758Yo5AMppz3erDPmAzFntv2sM+UDIacbDzhTPvybr7/+Wo0cOVL//sMPP6jvvvtOff/99+rHH3/8fflbNWrU/2nX6NGjpyYOecBN34XjQ1KBBKJPnz5qlllmUf369VP9+8/8+6+25QEDBqh5551XzTbbbOQLLbDt6bYfyLaf25diwJnyAY6TmgBTndg/ty+F+gvFaY8364z1v5Qz237WGfOBmNONB5wpHwg5ffGV+1GYMb+MNUsdiSYNvaefzizFacUGtVhnygc4TooPUJ1yg0/7QMjpxgNOig/4nL742hsn3J999tnUX59//vnU5a+++sr7byu9wbvU2oc2+uMf/zj115xzzjl1efbZZ1ddu3Y1f7Pt7/rawI2H2z9jyA0+fX7EnG484Ez5QMjpi6/c4NNYZ8oHUs6aJg2t0KAWOCk+QHXKDT7tAyGnGw84KT7gc/rim+cnYwt8+DVixEfq7bff+f3X2+qdd95R7733nk4K7KsBKo2eMKTo3r27fhox//zzqwUXXFAtvfTSauGFF1Lzzjvf1Lj64uv2+RCIhRujUH+hOG1/yTpj/S/lzPY/60z155gz6wNwpnwg5HR9QG7waawz5QMcJ8UHUs6aJQ2t0qAWucGnfSDkdOMBJ8UHfE5ffCu9wbtg/9wYxcAN8t1331Wvvvqq/v39999Xr7/++tSxBM10g3eppg/jKOabbz6dSODXUkstpf70pz+pWWedVf85JUY2vtm4x/pfypntL9aZ6s8xp9v/4KScHyGnrz/LDT6NdaZ8gOOk+ADVWeT9qCZJQys1KMD+ZTsoCPlAymmPN+uM+UDMmW0/60z5QMjpxgNOig/4nL741vsGn3WGfCDkxP6//PLL6sUXX9S/4ykCxhqAVr7BW2rh69+/v1p88cXVEkssoZZddlmdSPheP2Tja+Oe6s+xvuT2Fzgp50fI6et/coNPY50pH+A4KT5AdZb9flT1pKHVGtQeb9YZ84GYM9t+1pnygZDTjQecFB/wOX3xbfQbvA/rjPmAdWIQ4htvvKGThOeff14/QfC9XpAbfP18GA+BAZdDhgzRScRyyy2nX3dkQdwp50eoL/n6i9zg01hnygc4TooPUJ2teD8aN2GiWetIIUmD3ODTPhByZn0ATooP+JyuD8gNngacId9vv/2m3nzzTfXss8+qJ598Ur3wwgvqm2++MX8jjNzgy+cbOHCgTiAwPmKZZZZRK664ourSJV22xteXQv3Fd276cJ2x/pzHmTo/uM6UD3CcFB+gOuV+lPaBkNP6QkkDqyKkD2rAqYhPfByq7cMF6I477lC77rqrHsWP9+b77LOPuv322yVh8NAoPnyuihgeeuihapVVVlEzzzyz2nzzzdUll1xCiqtFzjfxcWhEn0tFSYM0qPg4NIIPTxNee+01ddppp6mVVlpJ/0Rqbybffvut+Zs05AbfOL6ffvpJ3XLLLTo5RMwXWmghdcghh6hHH31UF8TyIeeb+Dg0os9H7qRBGlR8HMrss08T9txzT33DwDvvww8/XL+GmDJlivlbPOSG3Ng+fP566qmnqtVWW00XpnITRznfxMehEX0homMapvxKy7DxboS6w+67IeDbYeogIuA6Qw1KeX9lyTpjAcrjjPkA15nyAY6T+k6Q6sT+uTHy+QDFaY836wz5gM/55ZdfqltvvVXddNNN+isH9wYiN1A6reSDC0nlpptuqjbZZBOdZAJf/3P7fAgpnZ72gZAz6wNwUnzA53R9oBXvR6Ey0uwnDbEdzoP4xMehEh+SIfy0uMIKK+hKg/vvv7966aWXOt1A5AZKp9V8AANgDzzwQDXPPPPoV1jnn38+axxEFjl/xcehDD5W0iANKj4OZfBhjobhw4er9dZbTxf9wTtr+9pBbqDi4+D60IfQl/7+97/rQbJIRs855xz9GS4FOX/Fx6EsPnLSIA0qPg719OGx25VXXqk22GADXXp4++23V/fee28Hh9xAxcch5csmEKgBgbEQV199tZ40zIecv+LjUCYfKWmQBhUfh3r5UGRpv/320yWF8erhqaee0l9DuMgNT3wcuD70OXx1gQRi0KBBaocddtB1Pey/kfNXfBzK5ksmDdKg4uNQax+eKlx11VVq+eWXVyuvvLJeHj9+vPnTzsgNT3wcKvVNnDhR3XnnnWqjjTbSRaTOOuss9dNPHQcay/WAjvjq74smDdKg4uNQKx8eBeMnud12200tsMAC+ukCJoFKITc88XEo2vfJJ5+o448/Xi222OJqp512Ug8//LD3/6Ai1wPxcSjKxxoIKQ1KR3zF+zDxE76dx8yGeGeMzyUnTJhg/jSO3PDEx6GaPsxNcvfdd6utt95aLbroorqI1BdffGH+lIZcD8THoUgfOWmQBqUjvmJ9mO9hxx13VHPOOae+wP7nP/8xf0JDbnji41BLHz7VRCKMCbVQQAqfAKeQ64v4OBTtIyUN0qB0xFeMDxfVBx98UK2xxhp6auNrrrkmWM43htyg8vkQQ/yS9quND30bZawxidbQoUN13/f9Pbm+iI9D0T4QrQg5acJ40n8QqkLl22HqbIs+Z6gB3ApcIVxnrEHzOFMB4jopAec4KT5AdVajkt20006rbrjhenX22Wer9957X24oRHr16qWr1vXpM5Pq2/cPOt59+vTRFQv79u079ddMM82kZ3NEnGaYYQb9b9HmPXv21J8H9u7de+psj7a/YJ/GjBn9++9tXwZ069ZWKe7nn3/WfwdjTEaNGqXnb3B/ff/997qoFpbxd8aNG6f/rUXiG2bhhRfWXwFttdVWqkePHrqt3fModL651zofNr5ZZ8gHUk7rA9YZ84GYM+sDcKZ8IOR0fUDuR2FCFSELmRrb95+HdjjWSbK4zlgD5HGmGpTrTPkAx0nxAaqTWhoaUJzYPzdGIR9IOXFzufjii9UFF1ygfvjhB71Nbiht4O9i/gO8npljjjn074MHD9ZVLeeaay5dtMrX9tjmxihGNkax/pfHaX0Yg4L5Gz777DNdyvvTTz/VyyNGjFCff/657geUdm2m+Kbo37+/2mWXXdR2222nY26JnW+pGGXja2MU84GY0+0vcKZ8IOT09T9qKWefM9SfU9cli+sM+UAeZ8wHuM6UD6ScY34Za5Y6UpWkoRUa1AInxQeozrLf4O3xZp0xHwg5cdPAjJKo2pj9KbRZbwAg5MOTAfx0iToT+L4fCQJ+odogftLMkm3PWP9z4x7DOlP9meuknB/WiU8UkUwggcDgwA8//FBPHvXOO+/oJxWgUeObF+vD0yTUfED9B5SwjhGLkRsPxCh1/oKQ0xdfucGnsc6UD3CcFB9IOWuWNLRKg1pa6QYPsu1nnSkfcJ1fffWVThYwFwRuFFma/QaA9pp//vnUAgssqBMEjNnAVMx4deD7/3zY9kz1Z7cvxYCTcn5wnNRXWBQn/s577737eyLxkf7EFr9effXVaF2OFI3QX1zQfkgejjrqqKkTZrmE2tMXX7nBp7FOyvnBcVJ8gOos8n5Uk6ShlRoUYP+yHRSEfCDltMebdcZ8IObMtp91pnwg5HTjASfFB6wTj6ZPPvlknSzg0zOXZksYMD4AiQHmJcAgt8UXX1w/RbDjArLt5/alGGhPyvnBcRZ5gwfYP7cvhfoLxWmPN+tEPJA8oBroc889p0s548kExlmkaMSEIevDOBTUKsEXRXiFkcXXnqH+EjrfXVxnrP/lcab6M9eZ8gGOk+IDVGfZ70dVTxparUHt8WadMR+IObPtZ50pHwg53XjASfEBn9MXX+ogIoABdHiycO655+rXEI1+wQ6BQYX49n7IkCE6SUAVwLnnntvbfm483P4ZoxFv8LH+l3Jm2886Qz4M0HzxxRd1ATAkE88//7waM2aM+dM2mqn/4bUFikUddthhU5MHtz1j/S90DXHJOlP9metM+QDHSfEBqrMV70fjJnR8AmwpJGmQG3zaB0LOrA/ASfEBn9P1Ac4N3nX6fNg/N0Y+8B76vPPO008W7D400wUb4xD+93//VycI+LXIIot0ip3c4NPnR8zp9j84Uz5gnfj3b731lk4k8Ovpp5+eOj7C0qj9Lwu+hsF4B3xxkcVtP5BtP7cvhci2p4sbD46T4gNUp9yP0j4Qclpf1ZKGVm1QC5wUH/A5XR+o1w3eknWGfCDmxE97+BICv7I/5TV6woDXDRiDsNJKK+mqlEsssYTq2rWr+dPOoP3cGIX6CyVGNh5ZZ6z/pZzZ+Fpnqj/HnG5/gTPlAyGnr/9V+g4ery5ee+019dhjj6nHH39cP42gvM7wUcb+jDbfY4891O67765fYbi48XD7Zwi0py8evvhSnXKDT/tAyOnGA06KD/icWV8oaWCVkXZxdxhQd9iH+Brfh4vvjTfeqG+sp5xySlMkDLhJbbbZZvqTUIzsx0+rhx56qD7GVMLgIv2FTrV8NvE7+OCDdeLw0UcfqZtvvll/1ojPV6mUtT/jxnHSSSfp8TN4wpdNiKS/0BGfn9xJgzSo+FwwCA0/geMnHFtrwdJoCQMuuMcee6wu64vaAfamMmDAAPM34kh/aRwfil7ZpBBf9SApPOaYY3QfCNEI/XnkyJHqiCOOUGussbp64YUXpL8wEF+YXEmDNKj4snz99dd6FPd6662n3n77bbO1nUa4wIJBg+ZXRx55pK4JgMfXWF566aWnVkikIv2lcX2INQavHn300er111/XdURQnfTPf/6z+RuN058tb775lj43t9xyS13/gov0F/FliY5pmPJr51r/vv+A+o4RuO+bQjtMeX9lyTpjDZDHmWpQrpMSII6T+k6Q6sT+uTHy+QA+G8QXEZhwJzTbZNkvsKiPsMkmm/z+k+amavDgBfSxh443S6g9ffGVUrVprDPlAxwnxQcoTlSufOCBB9S1116j3n//A7O13AkDyPq6d++uE/wTTjhhahnx2LFn28/GyNd+LiGnGw84KT7gc/riK/cjGnDGfKEy0qwfoVI7zEV8jenDRejOO+/U9QfwCL/REgaU4t1nn33Uv//9pB4EhycKSBiAxJdOq/lmm202ddBBB+mf3G2/Qc2NvNTj/EBtlH/961+6DLk73sFF+ov4fJCTBmlQ8QFU4MMsfKhIhzK/IcqWMEw33XR6em18s49HzmeccYZafvn2R85A4kun1X02YUZhKRSVwvmAPkal3ucHpuTeddddfz8HltcJkIv0F/GFICUN0qDiw9MEXCQxVTXe98coU8KAnwTxFQcSnMsvv1wtt9xyEt/fER+dlA+FvK644gp9I8ZgyqWWWsr8iZ8ynR8Y9Lnqqquq/fbbT40d21YBUOIrvhjJpEEaVHz4KgJlkDEgDJUdY5Thgoh3tcOGDVNPPvmkHjWOT+tQhAlIfMXHgePDtOL4wuaVV17Rg2lRaAnziWQpU8JgwSuKq666Sg/2RBVNF4kvnVbwRZMGadDW9uGTLQyaWnfdddUnn3xitoap9wURXzqcf/75embEs846Sy222GLmT9qQ+IqPQyU+DLDFFxhIHlARFXUhypgwZMHTuC222EKP97ED7yS+dFrFxxoIKQ1Kp9F9GOiIR/k33XST2RKnXhdEfCKHVyYPPfSQevjhh9VWW22l539wkfiKj0NRPswLsfXWW+uvLvBTPOpBWE+ZEgbrgwPF2fBk8dZbb9Xb8iD9pXl95KRBGpROI/vwXnbbbbfVA7t+/PFHvS1FPRIGzOeAVxB4J4uLHL6tDyHxFR+HavkwkRmehOGV2b777qtfZ+ShFucbCpqhSNvmm2+uC15xkP7S3D5S0iANSqdRfbjo4DEqPsW69957zZ+kqXXCgIqMmFobj1LxCmLeeec1f+JH4is+DrXwYdZTvLrAVwtHHXVUqUtXP/LII/oLCwwipvw/Et/m9oFk0iANSqdRfSj5jIpxe++9t55oikotL2D4KQ0j0zG24pBDDuk0wMyHxFd8HGrtQx/GVwsoGnX11VerhRde2PyJn1onDBZcEw488EC1+uqr6yeRISS+ze2zRJMGaVA6jeq7++679cXqvvvuM1tp1OoChs/X8OQDP5VhZLpv1j4fEl/xcainD1Uat9tuOz19N85HzJzqUq+EIQvGZGDffE8iJb7N7ctS8dTYgFqKE1DLXFJLcQKuk9KgHCc1QFRnLaaLxTZMyoOqcNyLTy0uYKivgE8lN9hgA++fg9Cxu/HAsYfaz8Xn9MW3GaYvd7HOmA9wnSkf4DgxnsXFF1+qE/vnxsjnAxSnPd6sM+QDrhPnEgb24jUcEokyJAwu+MrizDPP1AM9ffGtdPpyF7SfG6MQrjPW//I4Yz7AdaZ8gOOk+EDKOeaXtrodLqyvJyhQd5iK+Ir3jRgxQhd0weP+siUM8803n7rgggvUM888ozbccEPv/xdD4is+DmX0oc+vueaa6oknntBFo3BOZKl3wgDwVRVmtMWkXi4SXzpl9/koNGmQAJXbh4vDZZddpk/29957z2ylU82EAfNBIFlAISnMxte1a1fzJ3Skv4iPQ9l9KLqEsUZIoHHezjPPPKVIGCwff/yxTm4waZ31SHzplN0XorCkQQJUbh8GMGE2x0MPPVRPWsOlWgnDnHPOqS655GKdxKCQVN5jlv4iPg6N5MO5sv766+s5LvA6cY455jB/Qqda5+/kyZN10oBPM32vValIfym/z1JI0iANWm7f/fffr58uPP3002YLj2pccPBe+vjjj1dvv/22GjZsB/IARx/SX8THoVF9mIp+5513Vh988IE+d6gTZFUrYciCku0oQ/3YY4+ZLXQkvuX3Zak4aZAGLa8PFwb8FLDRRhupUaNGma08ir7goIIjnni8+eabeqAjkgWJLx3xiQ8VT4844gj10Ucf6S+KcE6FqEXCYH0oO4+Kl5jYLjbldhaJb/l9LhUlDdKg5fWNGTNGPzI87LDDyCewS9EXHMwN8e9//1vdcMMNavbZZ9fbJL50xCe+LCh0hsHMqIqKn/JdapkwWLCOie3wOiX1g4rEt/w+H7mTBmnQ8vrefvstteyyy+r5I/JS5AUHFe+uvPJKPcgR81lYJL50xCe+EJgMC68eb775Zj1GCNQjYciCui8o7Y7Xjz4kvuX3hciVNEiDlteHeRj+939X1COb81LUBQePUTE98PPPP6+22WabDl6JLx3xiS8Fzi28GsCA4pNOOqnTeIdaJgwWXIPwwwum3c4i8W1sHztpkAYtpw+jmPfff39dWY5TeMilqIRh6NCh+rHp4Ycf3ukCJvGlIz7xcUB1yYMOOkj9+99PqpVXXllvq0fCYBk/frye/A7XJhyrxLfxfdGKkFN+nWyW2gj9B9RqVYBaWSuPM9UAXCelQTlOaqVHqhP7h/3EACSMqsYjynpeIADq6Z9yyil6gFa2/WyMfMebJXbsbjzgTPlAyOmLLzXh8jlD/cUeewrXGfKBPM6YD3CdKR/gOCk+QHVSK0cCihP758Yo5AMppz3erDPmAzFntv2s84477lB77rknecbaLEX9AGEZMmSIrjcx88wzmy30ypHAPfZQf3FjFCPrjPW/PM6YD3CdKR/gOFP3oy7TdDNLHSE/aaDsMAfxFeNDmVn7OWW9Ewa8grAjuiW+4uMgvur48MrinXfeUX/961/NVhpFJwzwYUrw1VZbTY+5AhJfOmXykZIGadBy+h5++GH9OeV3331X14QBo7gx6PKaa67RPzlIfMXHQXzV9eEn++uvv17Xa7EDJWNUI2GwfPvtt2q99dbXk1/lReJbX18yaZAGLafviisu13MzYNraeiUM+D4cTxVQbAYTSwGJr/g4iK92vrXWWksPlER9lFCZ9momDJaxY8fqp5J4VcFF4lt/XzRpkAYtnw81FzDQabfddtfr9UoYMAslytriO/EZZphBb2vFeLiIj474au/DrJQYc4TXmQsssIDZ2kYtEgbr++233/R1DL+kEJSfsvpYX09Ig9Kphm/ChAlq2223Veecc47eVo+EAf9u2LBhegY+fE5lkfiKj4P46uvDoMTXXntN7bPPPvqcrmXCkOX0009Xm266qRo3bpzZ4kfiWx4fOWmQBqVTDR++kMDjxVtuuUVvq0fC0K9fP/1u9KyzztI1GCwSX/FxEF85fCjhjh9AMM11//79zdY2anl9wRceq6yyivrhhx/Mlo5IfMvlIyUN0qB0quH75JOP1V/+8hddURHUI2HASY1HmpgKN4vEV3wcxFc+H+o5PPnkE2r11VfX2+pxfUFNF1SLxfioLBLfcvlAMmmQBqVTDR/m0l9++T+rESNG6G21PqHx0wgmvbr11ls7/TQi8RUfB/GV19e37x/010+oJtmjRw+zlUfehMHy6aef6jk0cM0DEt9y+SzRpEEalE41fA899JBaZ511pk78UuuEYfDgwfrTqJ122qnTv5f4io+D+Mrvw9Tbu+22m55UbpFFFjFbaVSaMFjwGnaNNdbQn4e6SHzpFO3LwhoISUUCVLnvzjvv0FNIowwrqGXCgL+PKnKYI3+hhRYyW9uR+IqPg/gay4cvox555BH9OTWFohIGC655uPbdc8/dZovEl0PRPpdoGene03ecMyAEtRQnoJa5pJbiBBwntUGpTmppaEBxYv+uuOIKtffee+v5JEAtEwbME4EZKVFJzke2/WyMKB0ydOxuPOCk+IDP6YsvZy4O1xnqL9k+nyLrDPlAHmfMB7jOlA9wnNRSzlQn9s+Nkc8HKE57vFlnyAdSzmz7WWfMB2JONx5wpnwg5PTFN1bK+a677tLz2WCqfR9FJwxZH2pJYJrtrbfeWq+7cQ+RPXbf8Wbbj+tM+QDHSfEBqrPI+9GYX8aapY4U+qSB2gBUWtGHok177LFHXRKGeeedV7+OoCQMFokvHfGJj0MZfCja9tJLL3Wq6QCqmTAA1HLAJ6HDhw83W3hIfCvzhSgsaZAAVe678MIL1e677zG12EktEwZ8FfHYY4/pcQw+JL7i4yC+5vHhdQW+blh//fXNluonDAA+XAsxvf4FF1xgttKQ+BbvsxSSNEiDVu7DFwr77rvv1BOvVgkDHgGirOx1112nevfubbZ2ROIrPg7iaz4fqr5eddVV6uijj/b+22per7CMKfYPOeQQsyWOxLd4X5aKkwZp0Mp9xx13nD4pLLVKGPr06aNuvvlmfTJiHgkfEl/xcRBf8/pwbdlrr73Urbfeogu9WWp1vTr11FOTiYPEt3ifS0VJgzRo5b4DDjhAnXDCCWZL7U7AJZZYQn8dgaJNISS+4uMgvtbw/fnPK6gHHrhff5ZZq+uVBYnDfvvtZ9Y6IvEt3ucjd9IgDVq574gjDlfnnnuu2VK7hAGzYz7wwANq9tlnN1s6I/EVHwfxtZZvjjnmVA8++KBab731zBYeeRIGC76oOOyww8xaGxLf4n0hciUN0qCV+1B57Z//PM1sqV3CsOuuu6rLL788WvVN4is+DuJrTR/mn7n66qv1mCgOlSQMlpNPPllfQ4HEo7Y+dtIgDVq57/zzz1fHHHOM2VKbhAEDHjGjHKbFDY1fABJf8XEQX2v7cP3BOANMfEX5f4pIGCwYB/bPf/7TrLXTyvHgksfHShqkQSv34Zvj/fff32ypTcKAAjuYnfJvf/ub2eJH4is+DuITnwUFoDBbJr6yCFFkwgDgO/TQQ9Xll19mtkg8OOT1RStCTvm1rcAQiP0H1GpVgFpZi+ukNADHSa2sRXVi/zAhDEqzomgJqEXCMMsss6gbb7xRrbjiimaLn2z72RilOlDs2N14wJnygZDTF19qpUefM9Rf7LGncJ0hH8jjjPkA15nyAY6T4gNUJ7VyJKA4sX9ujEI+kHLa4806Yz4Qc2bbzzpTPhByuvGAk+IDPqcvvrHKkZa33npLrbvuuurLL780W9qoRsJgwZNT1HHYfPPN9bob9xj22H3Hm20/rjPlAxxnNe5HbtxdX5dpupmljpCeNFAagEMr+u6++y49nqCWCcOCCy6oa8gvtthiZosfia/4OIhPfCEWXXRR9cILL+jfLdVMGAAKQKGK7p133mm28JD48nzJpEEatHIfZqvcaqutp7prkTCsuuqq+v+dbbbZzBY/rRgPF/HREZ/4UgwYMEDdc889aqWVVqp6wgDgww9jmKHziSeeMFtpSHz5vmjSIA1auQ9zw+Ox2aRJk/S2WiQM+KTyhhtu8D7yzSLxFR8H8YmPCqrLYhwVpvbPUs3r38SJE/XkVs8++6zZEkfim8/HGggpDUoHvg8//KDm01tvuumm6tJLL9Vz48doxXi4iI+O+MTHAT5cg/B595Zbbqm31eL6h2st5sj48MMPzRY/Et/8PnLSIA1KB76ffvqv2mijjdWoUaP0tlqcMDvssIO6+OKLk/veivFwER8d8YmPQ9aHQYr4HHPnnXc2W/hQr3+WkSNHqrXWWkv98MMPZktHJL6V+UhJgzQoHfiQ7W688Sbq448/1ttqkTBgCtkzzjgjWoMBtGI8XMRHR3zi4+Dz4YkD6sNg3gou3ITB8umnn+qvOMaNG2e2tCHxqMwHkkmDNCgd+DCSd/vtt1fPP/+83laLhAFTxx577LHev5+lFePhIj464hMfh5gP16bjjz9ez5JJJW/CYHn55Zf1tRjXZCDxqMxniSYN0qB0rA8lVe2nP9VOGDgnYqvGI4v46IhPfByoPuoPOJUmDJZbb71VF4CSeFTmy0Ie08ChVQN04YUX6vd3oNoJA15DoBw15ZFfq8Yji/joiE98HLg+vEpF+edQ4lBUwmA57bTT1GWXXWrW2pB45KfwpKHVGtT6MOMbprkG1U4Y8HfOO+88tfvuu5stYVo1HlnER0d84uOQ17fTTjvpm7lL0QmD9e299z7q3nvv0csSj8qIlpHuPf10ZikOtRQnoJa5pJbiBFQntRQnoDixf9hPlE7dYIMN1NixY6ueMAC8jsBjPhDbz2z72RhROlDI6cYDTmqH9Dl98aWWhgauM9Rf7LFTyDpDPpDHGfMBrjPlAxwntZQz1Yn9c2Pk8wGK0x5v1hnygZQz237WGfOBmNONB5wpHwg5ffGllHIGPqfPh/1zYxTCdYZ8gOrEbJV2mutqJQwW9O/77rtPLbLIImYLfT9x7LHjzUJ1Vut+lCXW/1LOMb+MNUsdKexJA7VBqTSK78cff1DbbLNNzRIGzChnE4YYrRqPLOKjIz7xcSjKh6elBx10UNUTBvDzzz/rmhE//vij2UJH4ttOIUlDqzbo5MmT1c4776K+++67miQMOMEoc9e3ajyyiI+O+MTHoWjfP/7xD7X33h3HZlXrevrNN9+obbfdVl+7qUh8O1Jx0tDKDYrO/txzz9UkYcDTjBNPPNGshWnleFjER0d84uNQLd8RRxyphg0bpperfT198cUX1XHHHWfW4kh8O1NR0tDKDYrppvH1Qi0SBjxSw1cZvr+fpZXjYREfHfGJj0M1fbi2nXrqqXruiLxQr6cAA8lvv/12s+ZH4usnd9LQyg369ttv6VcFtUgY1ltvPXXuuedKpUcH8YmPg/jK70PlyLPPPltttNFGZgsdTsJg2XvvvdU777xj1joi8QiTK2lo5Qb9v/8bpTbffAvWKH8XagfH9NaY8CW1760cD4v46IhPfBxq6evatau66KKL9LTaVPIkDAAlpjGh4OjRo82WNiQecR87aWjlBkU50mHDdpg6p0QeqB18gQUWUFdccYXMVukgPvFxEF/j+bp3766GDx+uFlpoIbMlTN6EwfLRRx/pgZFSarqdlI+VNLR6g2IgIr7zzQu1g88yyyzqlltu0XPSx2j1eADx0RGf+DjU0zfDDDPoa+CAAQPMls5UmjBY7rnnHl0vQuJB85GThlZvUCQLJ5xwglnjQ+3gOFluvvlmNXDgQLPFT6vHA4iPjvjEx6EMvllnnVVdf/31arrpOhcZLCphsKBg3kMPPWTW2pB4+IlWhJzya9u3rKn/gFoBC1Ara3Gc1MpaVCf2L1tZC9/24h3bqFGjzBYe1A6OfcZXGXjPFiPbfnY/UwGPHbsbDzhTPhBy+uJLHQPic4b6i1v9LITrDPlAHmfMB7jOlA9wnBQfoDqplSMBxYn9c2MU8oGU0x5v1hnzgZgz237WmfKBkNONB5wUH/A5ffGlVo4ErtPnw/65MYqRdYZ8gOK899571YYbbqh+++03vV50wmB9ffv2VU8++YTq33+WTvHgHHu170cg1F8oThuPrNPn6zKN/9V48klDLOB5aDQf3nVhlG21EwaAOecx+DFGq8cDiI+O+MTHoYy+ddddV11wwQV6uVoJA/jpp5/0HBUYjJmXVohHNGlohQbI4vOhsz711FNmjQeng6M09N/+9jez5kfiIT4O4hMfhzL7dtllF7XHHnuYtXaKShgsTzzxhJ6tOA+tEg/WQMhmbACLz/fuu+/qATJ54CQMePR25JFHmjU/jdh+4qMjPvFxaEXfMccco9ZZZx2zpfiEwfpQLTJUvyFEK8WDnDQ0awMAn69tXomd1aRJk8wWOpyEYYklltDfJceKNzVi+4mPjvjEx6FVfbiu4ikAZqmsVsIAJk6cqK/9EyZMMFvitFo8SElDMzdAyHf44YerESNGmC10OAnDTDPNpK688krVo0cPs6Uzjdp+eRGf+DiIr7V8PXv2VNdee60etJgH6vX5gw8+0F9UpGi1eIBk0tDMDRDyPfDAA+qqq64yW+hwEgY8Wbj00kvVnHPOabZ0plHbLy/iEx8H8bWmb/bZZ1eXXXYZe8Ai5/oMcH12P8PM0mrxsESThmZugJDvhx9+UDvssEO0M/ngdkiMYYh9KdGo7ZcX8YmPg/ha24dP4A855BCzloZ7fQb487322kvfE1xaLR5ZyGMaODRqg6KTIGH4/vvvzVYa3A659tprq3333desdaZR2y8v4hMfB/GJDxxwwAF6Qr8UeRIGC2ou4KuN7N9vtXi4FJ40NHKDYqrr+++/Xy9T4XbI+eabT1188cXefwcauf3yID7xcRCf+Cy4hmKK63nmmcds6UwlCYPlscce09ds0Grx8FFo0tDIDfrFF1+oww47TC9T4XZIlEPFRCy+inqgkdsvD+ITHwfxic8F8/PccMMNuvy+SxEJg+Xggw9Wn332mVlrp5njESJaRrr39J1rfvtAOUrqDlNLZ1JLcQJq6cxYKc6tttpKD4Ckwu2Q+Ps33XST2myzzcyWjmTbz+4nJeChY3fjASe1A/mcvvhypgd3naH+4sYoRtYZ8oE8zpgPcJ0pH+A4qaWcqU7snxsjnw9QnPZ4s86QD6Sc2fazzpgPxJxuPOBM+UDI6YsvtZSzz+nzYf/cGIVwnSEfyOOM+QDXmfKBmPOOO+7Q5fftNbjIhAHAt9pqq6nrrrvObAn3P8qx43jdGIV8IOW07Zd1xnwg5oRv3ISJZq0jhTxpoAScQ619t912W1UTBoD3YpSEwdJI7cdFfOLjID7xpdhoo430oEVQjYQBPPLII+ruu+/Wy60WjywVJw2N2ABZ38iRI9Whhx5q1tLk6ZALLLBAsOJjo7cfF/GJj4P4xEfltNNOU4suuqhZa6eIhMGCV9icJ6wujRgPl4qShkZsANeHTvDjjz+atTh5EgYUbsI3xb4CTs3QfhzEJz4O4hMfB9RtuOaaa3QBKEuRCQPAl3VHHXWUWePRiPHwkTtpaMQGcH2YiOrmm282a3HyJAzghBNOUAsuuKBZa6cZ2o+D+MTHQXzi42B9uNaimi8oOmGwPlSkfPLJJ/UylUaMR4hcSUMjNoDrGz9+vK6VQOlYeRMGFG/yzVzZDO3HQXzi4yA+8XFwfZgRE4MW85K63mMZsxKPGzfObInTbPFgJw3N0gDHH3+89xMal7wJA0ZOY1pt9983S/tREZ/4OIhPfBx8vm7duun6DTPPPLPZQod6vf/888/1GIoUzRgPVtLQLA3w6quvqksuucSshcmbMODfIWFwO22ztB8V8YmPg/jExyHm69evnzr77LP1MhXu9R6JyVtvvWXWOtOs8SAnDc3SAFOmTNGFOn777TezxU/ehAFgWlX38ViztB8V8YmPg/jEx4HiW2uttfS0ABTyXO+xDwceeKD37zVzPEhJQzM1AAos4UlDjEoShsGDB6tjjz3WrLXRTO1HQXzi4yA+8XHg+E488URduj9GJdf7l19+Wdf5ydLs8YhWhJzy62TSf0Ct/gWolR6pTuwftbIWtg8aNEh98803ZktnKulAmO766aefVssvv7zZ0jFAdj9TAUpV6soCZ8oHQk5ffKnfIfucof7ixiiE6wz5QB5nzAe4zpQPcJwUH6A6qZUjAcWJ/XNjFPKBlNMeb9YZ84GYM9t+1pnygZDTjQecFB/wOX3xpVaOBK7T58P+uTGKkXWGfCCPM+YDXGfKB1zniy++qK/JeMrsUsn13jJw4ED14Ycf6mkCsH9ujEL9hXLs9nizzpAPpJzZ9rPOkK/LNN3MUkeiTxooAeJQb99JJ51UtYQB7LPPPsGEwdLI7ZdCfOLjID7xccjrW3bZZdXuu+9u1topImEAX3/9tR4U2SrxYA2EbOQGwGjXs846y6x1ptIONOecc+ovMiyt0oEs4hMfB/GJj0OlvpNPPlnNPvvsZq24hMGCpAGTHmZp1niQk4ZGbwCUcZ4wYYJZ60gRHQgjae2j4DIHHIhPfBzEJz4OZfRhFsyLLrpILxedMMCHuj+2qBRo5niQkoZGb4BnnnlG3XPPPWatI0V0oG233Vatu+66ernsARef+DiIT3wcyuxbe+211RZbbGHW2qk0YbCgujDuNc0cD5BMGhq9ATD4JTRZVBEJQ9++fdXpp5+ul8secPGJj4P4xMehEXznnHN2h4GnRSUMAK7999/fO+CSQtnbzxJNGpqhAw0fPly98cYbZq2dIhIG8K9//UsXcSp7wMUnPg7iEx+HRvH17fsHdcopp+jlIhMGAN/rr7+ubrzxRrOFTtnbLwtrICSVsjTAzz//rL+YcCkqYRg6dKjaaqutSh9w8YmPg/jEx6HRfHidjHmB8pK6fxx33HFq7NixZi1N2dvPpfCkoUwNgFLO7rTXRSUM0047rTrzzDNLH3DxiY+D+MTHoRF9mJsCgyKzU2hTodw/MH32xRdfbNbilL39fBSaNJSpAUaPHq0uvPBCs9ZGUQkDwCxns846q1lrp0wBF5/4OIhPfBwa2TfPPPPo8QccOPcPvLZ2izy5lL39QhSWNJStAc455xydOFiKTBgGDBigdtttN7PWTpkCLj7xcRCf+Dg0g+/QQw9Vs8wyi1mLw71/4N5jP/H00YjtZ4mWke49/XRmKQ61NDSgls6kluIErhP7M/fcc+sxDaDIhAFcd911avPNN9fLqVKcWULH7gYITmrAfU5fwKmloYHrDHXIVCadJesM+UAeZ8wHuM6UD3Cc1FLOVCf2z42RzwcoTnu8WWfIB1LObPtZZ8wHYk43HnCmfCDk9MWXWsrZ5/T5sH9ujEK4zpAP5HHGfIDrTPkAx0nxAaqTcz+666671LBhw8yan7z3j969e6tPP/1U9enTx2xpwx5vNkah/bPEjj3bftaZ8oGQ0/rGTZiof3ep+EkDNeBUivBhdGy1EoYhQ4aozTbbzKy1Ue/jzSI+8XEQn/g4NJtvu+22U8sss4xZ60wl948xY8ZM/Rzf0ojt51JR0lDGBvjuu++mjmUoOmHo2rWrOuOM0zt4yx5w8dERn/g4iK/xfbiW41W2715RxP0DYxt++OEHvdyI7ecjd9JQ1gbAJ5bjxo0rPGGAb5tttlFLL92elZY94OKjIz7xcRBf8/iWW2459de//tWstVHU/QOfXv7zn/9syPYLkStpKGsDYAbLyy67rCoJA95LH3/8cWZL+QMuPjriEx8H8TWfDzd2TG0Nir5/4NN/d3blRm4/dtJQ5g507LHHeielqjRhAIcccoiaddYBermRA55CfOLjID7xcSirb+DAgeqggw6qyg+cuCchKbE0evuxkoYydyCMUr3qqqvMWjtFJAyY9nqfffbRy40e8BjiEx8H8YmPQ9l9++23n5ptttnMWhtF3D/A5Zdfrr788oumaD9y0lD2gCOTmzx5sllro6iAH374Ybp6WDMEPIT4xMdBfOLj0Ai+Xr16qYMPPthsKe7+ASZOnKjOOedfZo1PmdqPlDSUPeAYnXrttdeatTaKCjgqh2299TalOl7xiY+D+MTHoZV9O+64o5prrrkKTRgAfBhv99NPP5ktdMrWfsmkoRECjspb2QlCigz4kUceoeeZyEsjtJ+L+OiIT3wcxFduH+alOOyww8wan1DCAHCPuvTSS/UylTK2X7Qi5KQJ481SO77/gFqpCzucrYIFQjtMccKHxz54GmC/hS0yYZh33nnVc889F21UaqUugGOnBChVqSsLtdKjzxnqQG6MQrjOkA/kccZ8gOtM+QDHSfEBqpNaORJQnNg/N0YhH0g57fFmnTEfiDmz7WedKR8IOd14wEnxAZ/TF19q5UjgOn0+7J8boxhZZ8gH8jhjPsB1pnyA46RWeqQ6sX9ujOD77bffdBG/ESNGmK00YgmDBWWr33zzTdW9e/fkfmbbz+6n73izxJxuPOCM+bpM080sdYQ1EDK1wzEoHYiD9V1//XVVSRgAapPn3cdqHW8W8dERn/g4iK91fSjid+CBB+plKpSEAaD44K233mrWwpS5/chJQxkDjqCgmpddzosv4IMHD1YbbLCBWeNR5oAD8YmPg/jEx6EZfJtssomaf/75zVocasJgOe+886J/Xvb2IyUNZQ34gw8+qN577/3CEwb4Dj/8cNWlC+tBjKbsARef+DiIT3wcmsWHpw2ozZOCmzCA999/Xz3++ONmrSNlbz+QvCuWOeBnnXVWVRKGpZZaSq299tpmC52yB1x84uMgPvFxaDbfhhtuqBZZZBGz1pk8CYPl/PPPN0vtlL39LNGkocwBf/3119UTTzxh1vjEAo7Kkr4/j1H2gItPfBwoPowlwsVvyy23VH/605/UfPPNp5Zddlk91fDw4cOnzjQLpP3Ex6EMPtwDQk8bKkkYAO5dGBBpKXv7ZeE/fydQiwY4++yzzRKfWMCRWXKfMpQ94OITH4eUD6Ou99prLzX77LPr32+66Sb16quvqo8//li99NJL6uqrr1bbb7+9rq6HomuYQM5F4kFHfPXzrbXWWmrQoEFmrY1KEwbLGWecoX8ve/u5FJ401KIB8BPOLbfcYtZ4pAJ+wAEHeP9OiLIHXHzi45Dy4aejxRZbTD9hmDRpktnqZ8yYMeqUU075/cK7pvrmm6/NVokHB/HV14d7wZ577mnWiksYwI033qi+/PJLs9ZOmdrPR6FJQ60CfuWVV3YqGU0hFfABAwZ0miI1Rtk6uIv4xMch5XvrrbfU+uuvr7744guzJY49395++x217rrrqc8++0ziwUB85fBtvvnmatZZZy00YQDYv2uuucastVGm9gtRWNJQq4AjSEgauFACjkmpUHSDQq2ONy/iEx+HlA9PDbbeemv9OwX3fPvqq6/0J8z/+c9/zBYeEg/xcSjS16NHD7X77rubtXYqSRjs+XHFFVeoKVOm6OWyt5+lkKShlgF/5JFH1CeffKKXqVASBsylvvPOO5u1OLU83jyIT3wcKD68ZsCNn0LofPvmm2/Ueuutx04cJB7i41AN32677dahYmsRCQPAufDvf/+79O2XJVpGuvf005mlMPgPfKU4Q1BLZ2adWR9GZt91111mLQ0lYQDIJE866SSzFt5Pt0FTpTiz+Jy+AFFLQwPX6fNh/9wYxcg6Qz6QxxnzAa4z5QMcJ7WUM9WJ/XNj5PMBitMeb9YZ8oGUM9t+1un6Ro4cqQc9+gY0ulDONwyQxOhxlGm3hPbTF19qKWefM9Rf3BiFcJ0hH8jjjPkA15nyAY6T4gNUJ7U0NKA4sX9ujEI+kHLa44UTFYIxxXVRCYNl44031pNZxQjtpxsP7GfseLP4nFnfuAkTzVJHKnrSQO1AVFI+zBCGgk5UqAkDCnnssssuZi1MrY+Xi/jEx4Hqu/POOwtLGACeWPzlL3/RRW5iSDzEx6HaPvxgmafgnyV0ftxzzz3e5ClFLdrPR+4WqEfAr7vuOj1BFQXqBQzgXesf//hHs+anHsfLQXzi48DxPfXUU2YpDOd8A6jBv/rqq+vPNH1IPMTHoRa+ueeeW62zzjpmjUfs/MBXSNyvAWtxvCFyJQ31CjiSBgrcC5hvkEuWeh0vFfGJjwPXlxqDwD3fLHjisPLKK3dKHCQe4uNQS9++++6rf+dAOT8wuJ9yzoB6tx87aajXDj/77LPqo48+MmthuBewpZdeWlezC1HvAKUQn/g45PFNmDDBLHUmb8Jgsa8q7Lkt8RAfh1r7llxyyej9woV6fmAabhRGS1GG9mMlDfXcYVSZS5HnAoaBlSHKEKAY4hMfh7y+GWec0Sx1pNKEwYJXFRtttJH3VYXEg474auPbbrvtzFIc7vnh1mxwKUv7kZOGeu7w6NGj1b333mvW/OS5gPXu3VtPSuKjLAEKIT7xcajEh2niXYpKGCzffvutPhc/++xTs0XiwUF8tfNh2uwZZpjBrPnJc37cdttt+l7no0ztR0oa6r3Dt99+uxo/frxZ60zeC9imm26qevXqZdbaKVOAfIhPfBwq9Q0dOtQstVF0wmB9qOOw4YYbSeVIJuKrrQ/3DHwmGSLv+YHXgPiSwqVs7ZdMGsqww3fccYdZ6kwlFzDfY6ayBchFfOLjUIQPE7gNHDhQL1crYbAgccAIdcr4JR8SX/FxyOsLvaKo9PzA581Zyth+0aShDDuMyamee+45s9aRSgK0xBJL6Il3spQxQFnEJz4ORfm6deumC9tUO2EA8OGcxxgHqRwZR3z182FA5KKLLmrW2iji/EB1yB9//FEvl7X9ohUhJ03o+Eog9B9QK3WBbLWu2A5b53nnnaf23ntvvZyl0gBdfPHFHQo6uQ1KraxFrdQFqJUeU5W6LNg/t/pZCNcZ60B5nDEf4DpTPsBxUnyA6qRWjgQUJ/bPjVHIB1JOe7xZZ8wHYk58S47Xec8884zZUp2EIYuvciTw7acvvtTKkcB1hvqLG6MYWWes/+VxxnyA60z5AMdJrfRIdWL/3Bj5fIDitMebdYZ8wOfETK+YGh4UmVDj3rTjjjuatTawn7H9s4SO3Rff1P2oyzTdzFJHyAMhKTscgtIhQ9x8881mqZ1KA4R5JrbcckuzVtn++RCf+Dg0gg+V8C6//DI1//zz6W3VThhAqI6Di8RXfByK8m2zzTZ6fEORCQPw3fPK1H6kpKFeO4wR1ajPkKWIACFhwJcToFU6uEV84uOQ9c00Ux915513qQUXXNBs4cM9f1MlpyW+4uNQpA+fIvsGRFaaUOMVBV7RWcrUfiCZNNRzh5Fx2WlDQVEZnZ3NspU6OBCf+Dj4fLPMMot6/PHH1UILLWS20Ml7/qKOwyqrrNIpcZB4iI9DNXw77bSTWWuj0oQB/Pbbb/qLQVCm47VEk4Z673C2HndRCcOgQYPUsssu2xAd0kV8dMRXPd/MM8/MThwqPX/dxEHiIT4O1fItv/zyek4KUETCYLnttltLdbxZyGMaOBSxw19++eXUryaKShjAFlts0TAdMov46Iiv+j5O4lDU+Rt64gAkvnTEV5wPfRsDhItMGMBTTz2tPz/OQ9HH61J40lDUDuPVBAJRZMIAUM3LpVU6uEV8dMQX9lESh6LP3++//15/jjliRHsdB4kHHfEV78MPonkJnR94LY8KkVyKPl4fhSYNRe4wXk0UfcHBxc0dxNVqHVx8dMSX9sUSh6LPX+trq+OwsZ7kR+JBR3zV8aHmz/zzz2+20EmdHzfddJNZolH08YYoLGkocodxUXj55ZfNWjuVXnA222wzs9ZGI3TIvIhPfBwq8fkSh2olDBZcIzBXhVSOpCG+6vo233xzs0SDcn48//zzHb6iiFGL47UUkjQUvcMPP/xwpwYs4oKzySbtn8c0UofkIj7xcSjCl00cqp0wAPhwQV1vvfXYiYPEV3wcKD5O0kA9P/CK4pFHHjFrYWpxvFkqThqqscOPPfaYWWujiAvOwgsvpAYPXkAvN1qH5CA+8XEo0ofEAQn/Qgt1fAVYjYTBwk0cJL7i40D1LbLIIqT6JdyE+oEHHjBLfmpxvC7RMtK9p5/OLPmx/wG1FCeIlfiED9+oYnKckSNH6m1FXXCOO+44tdtuu5Eb1LefvgalloYGrjMUcLdcaoysM+QDeZwxH+A6Uz7AcVJLOVOd2D83Rj4foDjt8WadIR9IObPtZ50xH4g53XjAmfKBkNP6fvrpv3qw4gcffFjVhCGLrR+xwAJtPxgAdz/d4wX2eN24h8g6Yz7AdaZ8gOOk+ADVSS0NDShO7J8bo5APpJz2eLPOmA/EnNn2s86Y79RTT1WnnHKKWesMN2EAffv21Qlxnz59zJZ2fPEt8n40bsJEs9SR3E8afDucClAM63vxxRcLTxgAPospYv+yiI+O+FrH17fvH9Ttt9+ha6LkhXuBjX2OCSS+4uOQx1eN6bJ/+ukn9frrr5u1dmpxvCFyJQ3V3GE83gRFJgwY3Tp48GCzxqcWARIfHfGV34ef/O+++27vVxUp8l5gpXJkG+Krj2+++ebzvqLI258t7uv6eh8vO2mo9g4/9NBDhSYMYIMNNjBLfOodoBTiEx+HWvr69euXrOPgUukFVipHiq+evnXWWccstVFpfwbZwZBlOF5W0lDtHcY84q+99ppZ4xMK0Nprr23WeJQhQDHEJz4O9fBRCkBZirjAAqkc2Y746BThGzp0qFkqrj/j9QReU5TleMlJQy12GBlVdoIqDqEAYU79JZdc0myhU5YAhRCf+DjU00dJHIq6wFqkcqT4OBTlW2qppfTgxSL7Mz4OePDBB81aO/U6XlLSUKsA+RqGQixAa665purShfcWpqwd0iI+8XEogy+WOBSdMFgfPseUypF8xJff17Vr1w5PGyyV9me8ts9Sz+NN3k1rFSA8YXj00UfNFjqpC85aa61llmiUuUMC8YmPQ5l8vsShWgmDRSpH8hBf5b411ljDrLVRRH9G0mCfwtf7eKNJQy0D9MYbb+gxDRxSFxw8YVhttdXMWppaHm8exCc+DmX0ZROHaicMAD6pHElDfMX4Vl99tal9saj+jHvju+++W4rjZT23r+YOP/PMM2aJBuWC86c//UmP4KbQKB0yi/joiK88PiQOUjlSfBwayde//yxqscUWK7w/v/DCC2aJT5HHG60IOWnCeLMU/w+olbpAqLLWjjvuqO644w6zFoeSMICDDz5YHXLIIWYtvJ++BqVW1vI5QwFyq5+FSFXqArb98jhTHYjrTPkAx0nxAaqTWjkSUJzYPzdGIR9IOe3xZp0xH4g5s+1nnSkfCDndeMBJ8QGf0/rKUjkSZPfTPV5gj9eNewzrjPkA15nyAY6TWumR6sT+uXEP9ReK0x5v1hnygZQz237WGfOBmNONB5wnnXSSOuuss8wWHqH+jAkXL7nkErPFj28/Q/3FjZFLl2m6maWOkJ40pBo0RmiHXVAJkgLnAuEbkOJC3T8q4hMfh1b2SeVIPuJrDB/ntXiWWH/O86Sh6OMFyaShFgH68ssv1TfffGPWwnAuEDPNNJOuBBmjUTtkXsQnPg618EnlSDriaxzf0ksvrWaccUa9TCXVn6n3SUvRx2uJJg21CtBLL71klsJwLxArrrii/vwlRCN3yDyIT3wcaumTypFpxNdYPiyvsMIKZi0NtT9Tn8gXfbxZWAMhqXB3+PnnnzdLfvJcIJZbbjmz1JlG75BcxCc+DvXwUQpAWSpNGCw2cXjnnXfMlnYkvnTE5/ctu+yyZikOpz9Tkoaij9el8KQhzw7HGiLvBSIUsGbpkFTEJz4O9fRREoeiEgYLKkeuvvrqUjkyJ+IL+4YMGWKWwnD7cyppKPp4fRSaNOTZ4Z9//jk4KCnvBaJXr15q4YUXNmvtNFOHpCA+8XEogy+WOBSdMFgfnjhI5Ug+4ov78NnltNNOa9Y6k6c/46nY2LFjzVpHij7eEIUlDXl3+OWXX9a1tV0quUCgPoP7fzdbh0whPvFxKJPPlzhUK2GwSOVIHuJL+7p166YWX3xxs9aRvP0Z+/Hqq6+atXZqcbyWQpKGSnbY97il0guE+2qiFg0qPjriE1+KbOJQ7YQBwCeVI2mIj+7zvSavtD+7n17W4nizVJw0VLrDr7zyillqo4gLxDLLLGOWytWBfIhPfBxayYfEQSpHio9D2XzugPwi7m/Zrw1rcbwuFSUNRezw22+/bZaKaVDMN2GThrJ1IBfxiY9DK/rcxKGaCYOFmjhIfMWXAk8a7CzLRdzfAOZpArU4Xh/RMtK9p5/OLHUm+x9QS3GCbJlLDECaddZZ9XJRDbrooouqN99809sA1NLQwC3HGQpQqhRnlqwzFvA8zpgPcJ0pH+A4qaWcqU7snxsjnw9QnPZ4s86QD6Sc2fazzpgPxJxuPOBM+UDI6YvvH/7wB7MUx+f0+bB/boxCuE7Xh1LHbSWnPzBbeOS5vvhKTtv9DB1vFs6xU3yA6qSWhgYUJ/bPjVGs/6Wc9nizzpgPxJzZ9rPOlA+EnG484KT4gOvEKzbfYP9KEuDPP/9MDRgw0Ky1gf1zYxQju5++/jduwkSz1JFcTxp8/wG1QbO89dZb+veiEgaw/PLLF7Z/FvGJj4P4ivfZypGDBw82W+jkvb5I5cg2xFeZD/ckl0oSBvTnN95406y1UcvjZScNRTYoPh8pMmEAvoEnZepA4hMfB/G1+1A5kltyutLri1SOFF+lPjdpqDRhAPYVBaj18bKShqIbNHvglkob1J1vomwdyEV8dMQnPk7J6aJ+IJHKke2Ij471LbbYovp3UETCAOy9sx7HS04aqtGg777b8SSstEG7d++u5ptvPrOlnB0oi/joiE98llgBKEtRCYNFKkeKj0PWN2jQYF2zoaiEAeADgnodLylpqEaD4tf777cPaiqiQRdYYLBOHEBZO5BFfHTEJz6XWOJQdMJgfVI5Mh+t7uvRo4eaf/75zRofX3/+z3/+E6wMmaLS400mDdVqUHzONGHCBL1cVAa28MKL6N9bqUMC8dERX/P4fIlDtRIGi1SO5CG+Nh++6stDqD9PmTJFffjhh2YLnSKON5o0VLNB7ZcTRZ7QmG+iETpQXsQnPg6t4MsmDtVOGAB8UjmShvjafYss0vYDLYdUf37vvffMEo2ijpc1ELLIBn333XcLP6FDdb4pNHKHzIP4xMehzD63AJSlGgmDRSpHxhFfRx83aaAkwLiHUinyeMlJQ9EN6huJTCXUoHkfATV6h+QiPvFxaASfmzhUM2GwSOVIP+Lr7OPcm6j9j/qkoejjjVaEnDRhvP499R9QK3UBW1lrqaWW0oM5uIQatE+fPuqTTz4xW/z49jPUoNTKWq4zFqA8zlTAuU5KB+I4KT5AdVIrRwKKE/vnxijkAymnPd6sM+YDMWe2/awz5QMhpxsPOCk+4HP64kutHAlcp8+H/XNjFCPrdH1lqRwJsJ+h483COXZqpUeqE/vnxijUXyhOe7xZZ6z/pZzZ9rPOmA/EnG484Ez5QMjpi2+o8vBcc83Vqa1dOP1v3nnn1bNEZ3H307d/9nhT+9Jlmm5mqSPJJw2UBg0R2mEM4vjqq6/MFjqxBsV4Bi6xBs2D+MTHQXzF+6RyJB3x1da34IIdX5+5cPvf559/7t0HS9HHa4kmDdVq0G+//VZNmjRJL1NJNSil2EuWenegFOITHwfxtfukcmQa8dXeF+uPefrf5MmT1ddff23WOlL08WZhDYSkktrhL774wizRoDRotqhTimbskDHEJz4OzeCTypFhxFcf36BBg8xSRyrpf75X/EUfr0vhSQNlh/FYhQq1Qf/4xz+apTjN2iFDiE98HJrJFysAZSkqYbDYypEffND+qkLiQaeZfXPOOadZaqfS/vfpp5+apTaKPl4fhSYN1B2mJg2cBp1jjjnMUphm7pA+xCc+Ds3oiyUORScM1ocnDquvvoZUjmTS7D73HlVE/8smDUUfb4jCkgbODlNeT3AatEuXLmq22WYza36avUO6iE98HJrZ50scqpUwWJA4SOVIOq3gQ9Jg+0lR/c/+AF6L47UUkjRwdziVNHAbFCOmUd87RBk7UBbxiY+D+Pi+bOJQ7YQBwCeVI2m0iq9nz556rE2R/Q9fIdbieLNUnDTk2eHY64k8DRp7NVHWDmQRn/g4iC+/zy0AZalGwmCRypFxWs3nG9dQSf/75ptvzFI7RR+vS0VJQ54Gxb/BJ5c+8mZgvkCAsncg8YmPg/gq97mJQzUTBotUjvTTij73B9xK+9+PP/6oJk6caLYUf7w+cicNeRsU35X6/m3ehAH4njRUI+Au4qMjPvFxqKavX7+Z1UMPPZwsthODe71KJQ4S39bwzTln+72qiIQVDoyfAUUfb4hoGene009nljri/gfUUpzg9ddf198yZ6kkYQCXX3652nHHHc1aOOCpsplZsuU4Yx0ojzPmA1xnygc4TmopZ6oT++eWN/X5AMVpjzfrDPlAypltP+uM+UDM6cYDzpQPhJy++FJLOfucPh/2z41RCNcZ8oE8zpgPcJ0hH35KW3/99dklpyu5XvlKTlNLQwPKseN43RiFfCDltO2XdcZ8IObMxsM6Uz4QcrrxhZPiAz6nr7+ESkP7cJ1Z35VXXqF23XW3QhIGC56cDR06VC+7cY9h99N3vGi/Mb+MNWsdYT9pCP0HVNzy0ZUmDAA1vS2V7p+L+MTHQXyN47OVIzklpyu9XknlyNb2zTHHnIUmDABPsfKS53hZSUMRDYriJ5YiEgZgCzs1WgcC4qMjPvFxoPg4JaeLul5J5ch2Ws03zzzzmCU+of6XvadyyHu85KShqAa1WVFRJyAYMGBAQ3Yg8dERn/g4cHyUktNFXq+AVI5sTd/AgQPNGo9Y/8vzpKGS4yUlDUU2KE6WIk9AvH/v2rWrWWunETpQXsQnPg7iS/ukcmQ74queb9ppp1W9evXSy1RS/Y/7pKHS400mDUU3qO8AKzkB+/bta5baaZQOlAfxiY+D+Og+qRwpPlBtn++eFYLS/zhPGoo43mjSUI0G/fHHjgdY6QnYp89MZq2NRutAHMQnPg7i4/ukcmRHxEeH6qN++UTtf9QnDUUdL2sgZBEN+tNPI/XvoIgTsE+f9qytETsQFfGJj4P48vukcmQb4qPD8VGeNHAS1pEj2++pIYo8XnLSUFSD2u9IizoB7bemjdqBKIhPfBzEV7lPKkeKjwrXl0oaOAkDGDVqlFnyU/TxkpKGohp0ypQp6ueffy70BEQAGrkDpRCf+DiIrzifVI7kI760L/Z6gttfwOjRo/W91UfRxwuiFSEnTRhP+g+olbp++uknXREtL74GPeaYY9Q+++xj1uLEKnVZ7PFSK2tlnakAcZ2UgHOc1A5EdVIrRwKKE/vnxijkAymnPd6sM+YDMWe2/awz5QMhpxsPOCk+4HP64kt9fwpcp8+H/XNjFCPrDPlAHmfMB7jOkK8slSOxf26MQv2Fcuz2eLPOkA+knNn2s86YD8ScbjzgTPlAyOmLL7XSo8/p82H/3Bi5nHzyyeqf//ynWWunkv6CSSB79+7dYT9D+2dJ7WeXabqZpY5EnzRQAhSikgD5CDUoZyRqllSDchGf+DiIr3F8Ujkyjfjovj59+pildirtL3jakKXo483CGghJJbTD7oFRiTVonqShmTukD/GJj4P4OvukcmQY8fF87j2riP6SfWpQ9PG6FJ40xHY4z5OGVINyk4Zm75Au4hMfB/GFfVI5sjPi4/tmmqm9TEBR/WXs2LbJpYo+Xh+FJg2pHR43bpxZokFpUN979RCt0CGziE98HMSX9tWzciTGVEg86JTVZ+9ZRfaX8ePHF368IaIDIaf8OtksxcHgC8oO33777WqTTTYxa3GoDfrqq6+queee26yFwf65g1liDZoaJGKPN+tMBSjmzLafdVICHnK68YCT2oF8Tl98ix5khydRGNCD7459f+5is2uAvpHtH+g/tg9NN51/incf1hnzAa4z5QMcJ9oq5QNUJ0ZfZ9sz5AMUJ3zYP/uDQswHUk7rA3CmfCDmzPoALropH7BOvGo97rjj1JdffqnXff826+fi8/Xv31/dddddav755zdbwrjXOt/5ZK8HqWudJeuM+QDXmfIBjpPiA1RnkYO+X3vttalTWWeppL9cc801as011+wQo9D+WWL7ifbr3nNas9aRQpIGaoNed911aptttjFrYTgn4Ntvv61mm202s+bHdqAiG9RinSkfCDndDg4nxQd8Tt8JU9ZR9JMnT1Y33HCDuv7663UCmIdaXLDFR0d81fPhScc999yTTByy52bo/LXErnVZrDPlAxwnxQeozrJ/1fXWW2+plVZayay1UWl/ufjii9VGG200dT9j+2cJ7aeNRyhpqPj1BDXggPJ6gnsC9ujRwyz54ewfBfEV53vllVfUX/7yF3XAAQdIwkBEfK3tk8qRcRrB1717x08Zi+gvEyZM0L+Doo/XpaKkgdugeAQYI88J2K2b/1tS0AgdyKVVfHjMiol6PvnkE7OFT6PfALiIT3xAKkf6aRRf9+7d9e+gqP5ifyAv+nh95E4a8jTopEmTzFJn8p6AoScNjdKBsrSK78UXX1R77rmnmjhxotnCp1luAFTEJ74sSBw222wzXXjKh1yvyuuz96wi+wte8xZ9vCFyJQ15G/S3334zSx2p5AT0JQ2N1IEsreLDAL5ddtlFEgYG4hOfjy+++ELttNNOnf6uXK/K7evWrXvh/SVURpoC93ijAyF7T9959LHvP6DWXzjzzDPV8ccfb9baqPQE/Oqrr9TAgQPNWrwBqANpAHXQD9dJCRDHSR30Q3Vi/6iDfihOe7zWifhj1HlemvUGEEJ84ktx4403qi222EIv2/Mte26Gzl+Le75nyV6vrDPlAyGne/2Dk+IDPqfrA5x6QK7T58P+Ua+fIOv0+fCaHiWf8xDqLyhNfcghh7D3M3S8YMwv7V9TZWE9aYj9BxTcJw1FnDDZ90OV7p+L+Ir1If4Y5ZuXVrgBZBGf+Cicfvrp+ne5XjWGL3vP4hDrL77/K0Xe4yUnDUU0aDZpKOKEgcMOhKxVwPMiPqXeeOMNXeEuD2W9YFvEJz4ORfrwFdKIESPMWjtyvaJTSx+SBl/8Y6T6S+jVf4hKjpeUNBTVoPbAijphbMbWyB0oD43qQ9KQhzJfsIH4xMehGr7nn3/erLUh1ys6tfYhXrGv/lwo/YWTNFR6vMmkoegGLfqEafQOxKWRfXmeMlTjAusiPjriK6cPgyItcr2iU3Zf0f2liP2LJg1FN0CXLp3/u0oaAJ+ZuDRzB2p0ny/+MVr1BpBFfHRa2Wd/0pTrFZ16+RBz373LhdNfunbtapbCFHW8rKt4pQ3qHlilJwz+fbYhGrEDUWkGX6rcd5ZGumBbxEdHfMX6MNuvXK/o1NOHekWp2HP7SyppKPJ4yUlDEQ2a/UmzqBPGfu/fqB2IQrP4ll56abMUp9Eu2EB8dMRXvG+RRRYxS3zkelVbX6zIIcjTX2L/X9HHS0oaimpQmw0VecIgALUMeArxhX2YTnjQoEFmzU8jXrDFR0d8xfvwzf+QIUPMGg+5XtXeFytsl7e/hJ40FH28IJk0FNmgeNJQ9AlTy0pYKcSX9u27775mqTONeMEWHx3xVcc3bNiwXN/+y/WqPr7Qk4ZK+ovv/y36eC2FTI1NrdR14YUXqn322ces8Qg16Keffur9/32kKnVlG5RaWcs6KQHiOKkBpzrLMl0s/h2mhX333Xf1uqVRL9h5EZ/4OIR8M8wwg3rppZfULLPMYra2kbomZq8v9tyMnb8g5nSvV3CmfCDk9F3/qJUefU6fD/tHvX66zpAPpJyff/65Wnzxxc1aG5X2l9NOO02XFLf7Gds/S2o/u0zj/yyUNRCSSmiHe/bsadZ4xBqUMgrVhdKgHMRH9+HvXXXVVWrGGWc0Wxr3gp0X8YmPQ8iH7WeffXanhCGFXK/q63OfNBTRX7L31qKP16XwpCG2w7169dK/c0g1KHfio2bvkC5l9M0777zqzjvvVP369avZBTYv4hMfh1r6jjjiCLXxxhvrZSpyvaq/L5s0FNVf7L216OP1UWjSkNphbtJAadDUSNQsrdAhs5TZh8dzTzzxhFpzzTXNljYa5YKdB/GJj0PMh8mJ9t9/f71MRa5X5fDZH3SL7C/TTjtt4ccborCkgbLDODAq1AalPmlolQ5paQRf//791fDhw9WDDz6gtt12W1YdB5dGvgHkQXyt60PCcPDBB+tlKnK9Ko8Pr9SL7i++gbBFH6+lkIGQ1EF2Tz31lFpxxRXNWhhOgz788MPJ7/9tA2QHs6QaNDZIJNug1kkJUMjpBghOasB9Tl/A//CHP5ilNK7T58P+uYODYmSdIR/Ap0P//e9/SSfQmDFj9O++uuvZT5A409DCmfIBjnPUqFFmqR3fJ1JUJ/bPHrsl9MkVxWmPN+sM+UDKmW0/64z5QMzpxgPOlA+EnL74jh3rnwbYJeu89NJL1SmnnFLKhCF7bsbONxC71mWxzpQPcJwUH6A6yzLoO8QjjzwydSpzS6X95d5771XLLLPM1P2M7Z8ltJ82Ht17+n/Irzhp4DToa6+9ppZaaimz5od7Al5//fVqrbXWMmudyXbIIhvUAifFB3xO1wca5QafxxnzAa4z5QMcJxIWF198qU7snxsjnw9QnPZ4s86QD6Sc2fazzpgPxJxuPOBM+UDI6YtvGUbRYzrqgw46qKYJwzHHHBP9ZDmL3c/Q8WbhHDvFB6jOst/g7fFmnTEfiDnhu/XWW9Uee+xhthTTX5544nG10EIL6/1M7Z/Ft5/Z+IaShopeT1A7kGWmmWYyS37ynIA//fSTWeoMd/9SiE98HMTXnL56JQxHH320XqYi8S2nb+TIkfp3UFR/+Z//abu3Fn28PnInDXka1M0As+Q9AUNJQ6N0oCzioyM+8XEoyicJQzvio5P12deVRfYXvDYr+nhD5Eoa8jYovs33zXRYyQnoSxoaqQNZxEdHfOLjUJTv3HPPlYTBID46rg9PGorsLxjfE/uBPAX3eNlJQyUNioTBfYdV6QnovoNutA4ExEdHfOLjUJQPCcNRRx0lCcPviI+Oz+cbGE3F119QFdS3nUKe440OhOw9/XRmqY3Qf0Ad9ALwfT7KaIIiTsBVVllFPfbYY3o51QCc/UTmRmlQjpM66IfqxP65GWYo4BSnPd6sM+QDKWe2/awz5gMxpxsPOFM+EHL64ksdhOpz+nzYPzdGIVxnyAfyOGM+wHWmfIDjpPgA1Ukd1Apiznq8kgh9JRHbz2z72RiFjjdLyOnGA06KD/icvvhSB7UC1xnqL9k+nyLrjPW/PM6Qb+jQoVPvWRxC/WWeeeZRH3/8sV7n7GfqfjTmF/8XReQnDbEG5YB530FRJ6B9PVHU/lnEJz4O4mtOX5kShhgS38bxxQbvh4j1lz59+ujfOVRyvKSkocgGnXnmmQs9AfF+qJE7UB7EJz4O4svnk4ShHfHRSfl8T8BipPofiuRxqPR4k0lD0Q2KpMGlkhMw+/mKpZE6EBfxiY+D+PL5JGFoR3x0KD7OkwZK/+MkDUUcbzRpqEaDzjJLxwOs9AQcN26cmjBhgtnSeB2Ig/jEx0F8+XySMLQjPjoUH+5X48ePN2txqP3P94O4j6KOl/X1RBEN+oc/9NO/g6JOwO+++1b/3mgdiIP4xMdBfPl8kjC0Iz46VN8333xjluJw+h/lSUORx0tOGopqUHuARZ6An376WUN2ICriEx8H8eXz1SNhwGeVkjDEaSbfp59+apbCcPtf6klD0cdLShqKbNABAwYUfgJ+8cUXZolPM3VICuITH4dW8dUrYZA6DHGazffZZ5+ZJT95+t+ss85qljpT9PGCZNJQdIPim9K8hBrU1n3g0mwdMoX4xMehVXxS6bEd8dHJ44s9acjb/+aYYw6z1JGij9cSTRqq0aCzzz57Lm+sQSmPfFyasUPGEJ/4OLSKTyo9tiM+Onl9oScNefsf/t3AgQPNWjtFH2+WiqfGBtRKXQAVqxZbbDHWK4VUgy633HLqgQceMGthUpW6slAra8FJDRDV2YrTxVqsM+UDIacbDzgpPuBz+uIr05fTgDPlAxxnUdOXl2XQY2o/s+1nY+Q73iwxpxsPOFM+EHL64luG6cstsf6XxxnzgZhztdVWU6+88opZa6OS/ocxgh988IFZa9vP1P5ZUsfeZZpuZqkjrK8nKFB2OPQ4xQelQTmvJ6gNSkV84uMgvnL45CuJdsRHp1Kf+8Nypf1vttlmM0ttFH28PgpNGqg7POecc5qlONQG/e6779TEiRPNWphm75Au4hMfh1bxScLQjvjoVOpDPaEff/zRrFWeMIDsq4mijzdEYUkDZ4cpTxo4DYrtX331lVnz0+wd0kV84uPQKj5JGNoRH50ifHjKYPtEUf3P/gBei+O1FJI0cHc4lTTkadDYK4oydqAs4hMfB/Hl80nC0I746BTlK3J2Z8tcc81Vk+PNUnHSkGeHY68n8jZoKGkoaweyiE98HMSXzycJQzvio1OkD08aiu5/vh/Aiz5el4qShrwNGnrSUEmDfvjhh2apnVbqkEB84uPQKr56JAxS6TFNq/nee+89s9ROpf1vrrn+aNbaKPp4feROGippUFSw6tGjh1lro9IT+t133zVLbbRahxSf+Di0iq9eCYPUYYjTir7333/frLVRaf/r3r27mm222c2W4o83RK6kodIG7dKlS4dRn0Wc0NksrhE6kIv46IhPfBQkYWhHfHSq5csmDUX0Pzyxx70U1PJ42UlDUQ06//zz69+LOqFHjhypvv3224bpQFnER0d84qMgpaHbER+davnwdd/o0aP1clH9b95559W/1/p4WUlDkQ260EILFX5Cv/32W2apnTJ2oCzioyM+8VGQ0tDtiI9ONX32KUOR/W/w4MF1Od5oGene009nluL/AbUUJ7DlOG+44Qa19dZb62VLpQ164okn6p8uLG4DcPaTWsqZ6kT7ueVNQwGiOG08ss5YwFPObHytM+YDMafbX+BM+UDI6et/1FLOPqfPh/1zYxTCdYZ8II8z5gNcZ8oHOE6KD1Cd1NLQIOYs01cSsf3Mtp+NUeh4s4ScbjzgpPiAz+mLL7U0NHCdof6S7fMpss5Y/8vjjPkA1+n6Tj31VHXEEUeYNT6+/jd8+HC1zTbbmLU2qPuJ/XNj5PaXMb+MNUsdIT1pSDUoF/gWWWRhs9ZGESf0O++8o38Hle6fi/joiE98HIryyWeV7YiPTi182XsTl1D/w9P6PFR6vMmkoVoNOt9886tpp51WLxd1Qr/7bltgWq1Dio+O+JrTJwlDO+KjUyvfW291fnVOIdT/MABy0KBBZgudIo43mjRUs0G7du2q38kUeUJ/8MGHasqUKWaNT606UF7EJz4OreKThKEd8dGplQ/zIo0YMcJsoRPrf6gE2atXL71MpajjZQ2ELLpBF110UbPEx9egCE52mlAOjdoh8yI+8XEoq08ShnbER6eWPpQDmDx5sl6mkurPSyyxhFmiUeTxkpOGajToIossYtZ4xBr0jTfe0L9zaOQOmQfxiY9DWX2SMLQjPjq19r355ptmiQalPy+22GJmKU3Rx0tKGqrVoHmeNKQa9LnnnjNLNBq9Q3IRn/g4lNVXj4RBSkOnEV9n3zPPPGOW0lD785JLLmmW4hR9vCCZNFSzQTnZEqA06LPPPmuW0jRDh+QgPvFxKKuvXgmD1GGIIz6/j3pP4vRnyuuJoo/XEk0aqt2g/fr1U/379zdrcagNijkoUB0yRbN0SCriEx+Hsvqk0mM74qNTL99PP/3knUzRhdOfZ555Zj1/U4yijzcLayAkFc4OL7744mYpDKdBsf3FF180a36apUNSEZ/4OJTVJ5Ue2xEfnXr68Lo81Te5/Tn1aqLo43WJVoSc8ittxCe1UhdwK1ahUtYpp5xi1jqT5wJxwAEHeKtv+Sp1AV+DUitrUStHAooT+5eq1JUl5bTHm3WmOlDMmW0/60z5QMjpxgNOig/4nL74UitHAtfp82H/3BjFyDpDPpDHGfMBrjPlAxwntdJjylmWQY+p/cy2n42R73izxJxuPOBM+UDI6YsvtdKjzxnqL9k+H8N1xvpfHmfMB7jOlA9knccee6w6++yzzVpn8vTnww8/XB144IFmrSNF3o+6TNPNLHWk0CcNlAZ1WXbZZc1SZ/JeIEJPGvLsXwzxiY+D+PL55CuJdsRHpwy+559/3ix1Jm9/Dt0ziz7eEIUlDXl3eOmll/b+vUouEK+88oqaNGmSWWujGTtkDPGJj0NZfZIwtCM+OmXwoW5QqARA3v6M/9P3eqIWx2spJGmoZIenm246teCCC5q1Niq9QEyYMKFDre8ydKAY4hMfh1bxScLQjvjolMWH+gxIHFwq6c8oU4B7ZpZaHG+WipOGInY4+7ilqAuEfUVRlg4UQnzi49AqPkkY2hEfnTL5fK8mKu3P7quJWhyvS0VJQ1E7vNxyy+nfi7xAIGkoUwfyIT7xcWgVnyQM7YiPTtl8L730kllqo4j+vMwyy5il2hyvj9xJQ5E7PGTIkMIvEE899VSnyauaqUO6iE98HMrqq0fCIJUe04iP58O/z1aCLKo/2ycNtTjeELmShqJ3GEWeBg4caNbaqPQCgc9JXnvtNbOluTqki/jEx6GsvnolDFKHIY74+D48ZRgzZoxeLqo/zznnnLqoU72Pl500VGuHs49dirpAPP744/r3enegLOITH4dW8UnC0I746JTV98gjj+jfi+zPeI1fhuNlJQ3V3GGbNBR5gXjsscdK0YEs4hMfh1bxSWnodsRHp8w+3HuK7s/ZH6wt9ThectJQ7QChQYq+QOAbWV9FOgpl7pBAfOLjUFaflIZuR3x0yuz7/vvv9RxILpX2Z9Q0ylKv442Wke49fdv3oKn/gFqKE6Acp8/XpUsX/b7mhx9+MFvoxC4Q1157rdp66631MnU/sX9uedNQg1Kc9nizzliAUs5s+1lnKuAxpxsPOCkdKOT0xZdaytnn9Pmwf26MQrjOkA/kccZ8gOtM+QDHSfEBqpNaGhrEnGX6SiK2n9n2szEKHW+WkNONB5wUH/A5ffGlloYGrjPUX7J9PkXWGet/eZwxH+A6Uz7Acd52221q5513NmttVNqfZ5llFvX5559P7duh/kLZT3u82Rj5fGN+GWuWOpJ80kBpUA4hH5KGoUOHmi10UhecBx54wCzRqNXx5kV84uNQVp98VtmO+Og0gu+hhx4ya20U0Z9XW221ZMJAoYjjjSYNtQ7QWmutZZZoUC44CKD76WWIWh8vF/GJj0NZfZIwtCM+Oo3gw73GDsAHRfXnNdZYQ/9ehuNlDYSs9g6vueaa+okDBeoFB49SMRdFikbokC7ioyO+cvgkYWhHfHQaxYd7zciRI/VyUf25a9euatVVVy3N8ZKThlrsMN57L7XUUmYtDPeCk3pF0SgdMov46IivHD5JGNoRH51G8tmnDEX25yWWWEL179/frPEp+nhJSUMtA4SnDTHyXHDuvPNOs9SZRuqQFvHREV85fJIwtCM+Oo3mu//++wvvzxjPkJeijxckk4ZaByg2riHvBQefXr7//vtmrZ1G65BAfHTEVw5fPRIGKQ2dRnzF+j7++GPvfYZKqD/n+UAAFH28lmjSUI8AoV5D3759zVo7lV5wbr31VrPURqN1SCA+OuIrh69eCYPUYYgjvuJ9d9xxh1niE+rPuBcutthiZgudoo83C3lMA4dKdhiDPtzMqogLzs0332yWGrNDio+O+Mrhk0qP7YiPTqP6Yq/BY8T6MwZAUj8OsBR9vC6FJw1F7HD2FUVRF5x33nlHffjhhw3bIfMiPvFxKMonlR7bER+dRvXh/vLRRx+ZLXRS5wd3PEPRx+sjWhFyyq+TzVIcaqUuQKlYhaqQgwcPNmsdqeSCg4vYkUceadbaCDUotbJWtqoWiAUo5bTtl6rUlSXmzMbDOikdKOR04wsnxQd8Tl9/oVaOBK7T58P+uTGKkXWGfCCPM+YDXGfKBzhOaqXHlLMsgx5T+5ltPxsj3/FmiTndeMCZ8oGQ0xdfaqVHnzPUX7J9PobrjPW/PM6YD3CdKR/gOGO+ww8/XJ100kl6mUrq/MAThm+//VbNPPPMpP3E/rkxco83S8rZZZpuZqkjhT1poASIChoJM3q5VHrByb6iAHn3DxR5vEB84uNQVp98JdGO+Og0uu+WW24xSzQo58cKK6yg74UUanG8lkKShmrs8KabbmrW2ijigoPXE3iMBBqpQ3IRn/g4FOWThKEd8dFpdN+rr76qRowYYdbSUM+PzTff3CzFqcXxZqk4aajWDqPB7ACQIi84yAgbqUNyEZ/4OBTlk4ShHfHRaQaf+wQ7BvX8wL1vo402MmthanG8LhUlDdXcYczqNWTIkMIvONzHSFlqESDx0RFfOXySMLQjPjrN4EN/pN5TOOfHiiuuqAYMGGDW/NTieH3kThpqscPUxzM+QgHCY6Tnn3/ebKFTi+MVHx3xlcMnCUM74qPTLL6nnnpKffrpp2YtDPf82GKLLcySn1ocb4hcSUOtArTZZpvpug1cUgG69NJLzRKNWh1vXsQnPg5F+eqRMEilxzTiq53vsssuM0thuOcH7nmxVxP1bj920lDLHcYrir/85S96mQolQDfeeCP5U5t6ByiF+MTHoShfvRIGqcMQR3y18+Eecvvtt5s1P3nOj1VWWSX41UQZ2o+VNNRjhzmvKKgBGj9+vE4cUpQhQDHEJz4ORfkkYWhHfHSazXfNNdeocePGmbXO5D0/Qq8mytJ+5KShXjuMTy8p/w83QBdddJFZ8lOWAIUQn/g4FOWT0tDtiI9OM/quuOIKs9SZvOdHt27d1IYbbmjW2ilT+5GShnrucL9+/dRKK61k1vzkCdCbb76pXnvtNbPWkTIFyIf4xMehKN9DDz2kb+CSMIiPQzP6XnrpJT17so9Kzg/Mu+RO2Fi29ouWke49/XSk/4A6PgBMP/30Zqkd3w5nnVdffbX6+9//btY6UkmAdthhB3XmmWeatTbs8WbLccYaNHXs2fazzlSAYk43HnBSAh5y+uJLLeXsc4b6i1veNITrDPlAHmfMB7jOlA9wnBQfoDqppaFBzPnzzz/r0u4oa+tSrYQh9JVEbD+z7WdjFDreLCGnGw84KT7gc/riSy0NDVxnqL9k+3yKrDPW//I4Yz7AdaZ8gOPMcz8C++67rxo+fLhZa6fShPqCCy5Qf/3rX81ae/tlY+TbP0vq2LPtZ50h35hfxpqljkSfNFACxCGvDyNJp512WrPWTqUBwve1Y8e2N0xZjjeE+MTHoUjfxRdfXIqEIYbEV3wc8vpwz/ANgKz0ftSrVy+17rrrmrXyth9rIGS9drh3795q/fXXN2ttVBoggAzfTmda1gBZxCc+DkX7rrrqKrPUjiQMdMTXPL7bbrut09OhIu5HG2+8sZphhhn0cpnbj5w01HuHt99+e7NUTIAsuBiWOUBAfOLjULTviy++UO+9955Za0MSBjriay6f+1qiqPvRdtttp38ve/uRkoYy7DBKSg8aNKjQhAFgspHXXnvVrLVRpgCJT3wcquEbMeIjs9aGJAx0xNdcvhdffFHfMyxF3Y8WWGABtfTSS5e+/UAyaSjTDm+11VZmqZ0iLmAXXHCh/h2U6XjFJz4O1fKNHj1a/w4kYaAjvubznXfeeWapuIQB4ClD2dvPEk0ayhZwJA09evQwW4q7gN13333qs88+K93xuoiPjviK8/Xs2TYIuVoJAz6rlIQhjvjq78M94oEHHtDLRSYMuKdhPINLmdovC2sgJJVqBRyfiKy55pp6ucgL2G+//caejyJLGTt4FvGJj4Prm3vuuauaMEgdhjjiK4cPhc1wrygyYQD4YqJPnz5mrY0ytZ9L4UlDtQO+7bbbVuUChpKgI0eONFvolLWDW8QnPg4+H8YSDRw40KzxkIRBfBzK6hs1apSeeqDohAG+7bbb1qy1Uab281Fo0lCLgK+88sr6J588xAKO+Sh8n5XFKGsHt4hPfBxCPpw32YIzVCRhEB+HMvsuueQSfY9wqTRh+OMf/6iGDFnebClX+4WIVoSc8utksxSHWqkLUKt1xSp1nXTSSerwww/Xy1RiFzBL//799Xurnj17kitrUSt1gZgz236pSl1ZQk43HnBSO5DP6YsvtXIkcJ2h/pJtzxRZZ8gH8jhjPsB1pnyA46RWeqQ6sX9ujLK+r7/+Wo/u9l04fcTON9+gx9R+ZtvP7qfveLPEnG484Ez5QMjpiy+10qPPGeovboxCuM6QD+RxxnyA60z5AMdJ8QGKc+LEiWqJJZZQ3333ndnSRqUJAzjxxBP1XC7At3+W1H7a483GKOYDMSd83c1YJpdCnjRQA0Ql5UP5Z0zsQYWSMIDvv/9e3XDDDWYtTK2Pl4v4xMeB4sPricMOO8ysxeEmDCkkHuLjULQP94RqJAzdu3ef+mqi7O2XpeKkoR4Bn3XWWYPTh7pQEwYL5qKI/Xk9jpeD+MTHgePbc889k1PVx843PB2UhCGO+Mrlmzx5srroovZP8kERCQPAPax//1lK334uFSUN9Qz4AQccYJbCcBMG8M4776h7773XrHWknsdLQXzi48D14XzChDr77LOP2dKR0PmGT8qQjB944IFmKw2Jh/g4VMN3//33qY8+GmG2FJcwYBmTMJa9/XzkThrqHfDFF19crbrqqmatM3kSBgt+IpoyZYpZa6Pex5tCfOLjkNfXtWtXdc455/x+Mb1fLbzwwmZr+HzDtPaPPvqofqXIQeIhPg7V8KH/nnHGGWZLcQkDwIB+jJPISy3aL0SupKEsAQ89bagkYQBvv/22LvhkKcvxhhCf+DgU4VtrrbXUW2+9pZ566in9BGGVVVZRiy66yO8XwsXVOuuso7+OwFO7O+64o0NyQUHiIT4O1fJhMsN33nlXLxeZMAC86stLvduPnTSUKeC4cC222GJmrY1KEwYLvtDA04YyHa8P8YmPQ5E+nGuYE+bkk09WDz74oHrllVfViy++pO655x511FFHqYUWWsj8TToSD/FxqJYP1/4zzjhdLxedMGCeCTyBy0MZ2o+VNJQx4Pvuu69ZKi5hAB988IF3zvR6H28W8YmPg/jEx6GVfbfeeqsey1B0wgAfxgT5/ixFWdqPnDSUNeCYjwL1FYpMGAB8p556qi4bainD8VrEJz4O4hMfh1b2YRljGaqRMODLv4022shsoVOm9iMlDWXaYReMzN55553NWjtFBPyTTz7RGScoy/EC8YmPg/jEx6HVfSgX/Z///Mes8Yn9ALvbbrvp+gwcytZ+yaShEQI+bNj2arrppjNbikkYLKeddlqnLyk4NEL7uYiPjvjEx0F85fahLsPZZ59t1vjEEgZUOd5+++31MpUytl+0jHSvnu3TUFt8/wG1vCd22C1vGtphitM2AJz77befOv/88wtNGAB8qDvue5oBUqU4s2A/KQEKOX0Bp5Zy9jlDHciNUQjXGfKBPM6YD3CdKR/gOCk+QHVSS0MDihP758Yo5AMppz3erDPmAzFntv2sM+UDIacbDzgpPuBz+uJLLQ0NXKfPh/1zYxQj6wz5QB5nzAe4zpQPcJyxqQWyUJ3YPzdGF198sdprr73MGo9YwgDwtd/pp7cNrgSp/cy2n91P3/FmiTndeMAZ8435ZaxZ6ghrIGRqh2NQOhAH14dCGZzS0i6xgB9//PHkmvuWah8vEB8d8YmPg/hazzdp0iT91VweUgkD5jPCD7ZUytx+5KSh7AGfZ5551N/+9jezxiMV8C+//LJDkY8UZQ44EJ/4OIhPfBwa1XfKKaeob775xmyhk7p/gF133ZU8vXzZ24+UNDRCwMGRRx6ppp3WPzNXCErAAb5F/+KLL8xamLIHXHzi4yA+8XFoVN9XX33F+sHQQrl/4J70j3/8w6zFKXv7gWTS0AgBt+BzFmR0VKgJAxg3bpw64ogjzJqfsgdcfOLjID7xcWhkH6qa4hrPgXr/2HvvvdWAAQPMWpiyt58lmjQ0SsCzYPpe34AZF07CYLn22mvVs88+a9Y6UvaAi098HMQnPg6N7HvuuefUzTffrJepUO8fuBdRJlcse/tlYQ2EpFLPBujXr5/aY489zJqfPAkDwN9BRur+3bIHXHzi4yA+8XFoZB8+p8cgesr138K5f8A988wzmzU/ZW8/l8KThjI0AN4f9e7d26x1JG/CYHnhhRfUddddZ9bKH3DxiY+D+MTHodF9V111lXr55ZfNWhrO/WPGGWdMfjFR9vbzUWjSUJYG6Nu3r3fO/0oTBsshhxyixo4dW/qAi098HMQnPg6N7kPNjdQ4tSzc+wdeS/Tp08esdabs7ReisKShbA2A1wgzzTSTWSsuYQBff/21/jzHpUwBF5/4OIhPfByawYdCS99++61Zi8O9f+AH1+xkii6N2H6WaEXIKb9ONktxqJW6AKVaF3bYrdQVa4CQE53ixBNPLDRhAPChWMczzzytFl20bWpuSoBC++kGKFWpK4vP6Qs4tXIkcJ2hDunGKEbWGfKBPM6YD3CdKR/gOKmVHqlO7J8bI58PUJz2eLPOkA+knNn2s86YD8ScbjzgTPlAyOmLL7XSo8/p82H/3BiFcJ0hH8jjjPkA15nyAY6T4gNUJ+V+NGLECLXIIouoiRMnmi1h8tw/jj76aD2ewYc93myMfMebJXbs2fazzpQPhJzW172nv3xBxU8aqAGnUqQPk4NgBkyXShMGMGHCBHXQQW3f3pbleIH4xMdBfOLj0Aw+XP/xaX61EgZ8+r/LLruYtY40Yvu5VJQ0lL0B8DTg8MMPN2ttFJEwWJ544gl1ww03mDU+jdiBxEdHfOLjIL7a+C6//HJ97U6RJ2EAxxxzjOrVq5dZa6cR289H7qShURpgyy23VEsuuaReLjJhAPBhdOwPP/xgttBplPbLIj464hMfB/HVxvfdd9+RqjPmTRiWXXZZtdlmm5m1dhqx/ULkShoaqQEQfEw4VQmxDvTTTz+xJiIBjdR+FvHREZ/4OIivdj5UZxw1apRZ85M3YcC/wzg69983WzzYSUMjNsCQIUPUhhtuaNZ4UDrQ9ddfr+6++26zFqcR2098dMQnPg7iq53vvvvuU7feeqtZ85M3YQDbbLONWmGFFcxaG80YD1bS0MgNgKcNvvdMMTgdCBnszz//bNb8NHL75UF84uMgPvFx4PjGjBmjB8bHqCRhwL3lhBNOMGttNGs8yElDozcApiXdf//9zVoabgfCDJjuoMssjd5+XMQnPg7iEx8Hru/ggw/WM1mGqCRhAIceeqiaY445zFpzx4OUNDRLA7iBDZG3A51//vneCa2apf2oiE98HMQnPg5c3/PPP68uueQSs9aZShOG2WefvcMPpM0ej2TS0EwN4HuE5FJJB8LkJzvvvHOHKVabqf0oiE98HMQnPg5cH8r9Dxs2TF+bfVSaMIDTTjtt6qvvVohHNGloxgbAYJU///nPZq0jRXSg999/Xx100EF6uRnbL4b4xMdBfOLjkMeHL9s++ugjs9aRIq73yy+/vNp88831cqvEI1pGulfPHmapjdB/QCnvaXeYWjoz5cw2ALV0pnW+8cYbaujQoeq3337T66CIDmSB69prr1Wrr7662dIGtZSz79hDAc+2ZwzXGetAeZypDsl1pnyA46T4ANVJLQ0NKE7snxujkA+knPZ4s86YD8Sc2fazzpQPhJxuPOCk+IDP6YsvtTQ0cJ0+H/bPjVGMrDPkA3mcMR/gOlM+wHFSpxagOrF/box8PmCd9957r9p22231sksR1/tu3bqpxx9/XC288MId2s/uZ2j/LLFjd+MBZ8oHQk5ffFP3ozG/jDVLHSEPhKTscAhKh+RQqW/xxRdXu+++u1krNmGwoO54tuhTM7Wfi/jEx0F84uOQx4ciTqG5H4q63uOLOTdhsDRzPEhJQzM2wGGHHabmmmuuwhMG68NPouhUcDVj+1nEJz4O4hMfhzw+jF/AD4UovOdS1PV+nnnm0a+hWy0eIJk0NGsDTDvttOrMM8/s1ImKSBgsqG9+xRVXmDU+rdYhxSc+DuITnw98xfbkk0+atXaKShjgOeOMM7z70szxsESThmZuAPhQvWuLLbYwW4pNGAB8mCL13XffNVvoNEL7uYiPjvjEx0F8NN8777yjTjzxRLPWTlEJA9h+++29g+mbOR5ZyGMaODRShzzuuOPUzDPPXJWEAWD61Z122klPpU2lkdrPIj464hMfB/HRfLjGbrXVVp2mvC4yYcC9wlfEr5nj4VJ40tBoHRKjUk866SSzxofSIT/44AP9xIFCo7UfEB8d8YmPg/joPnxe+fbbb5u1NopMGMA///lP8lccFMoeDx+FJg2N2iE33nhjtfbaa5stdDgdEhXJhg8fbtb8NGr75UV84uMgPvGFwKSBF110kVlro+iEYY011lDrrLOOWWujmeMRorCkodE7JAa2zDjjjGYtTZ4Ouccee+h3bj4avf24iE98HMQnvhBvvfWWrsSbpeiEoXfv3nra6yytFg9LIUlDIzaA65tlllnUkUceadbi5O2QKGmKpxqjR482W9pohvbjID7xcRCf+EKMGjVKX1OzpfuLThjgO+64Y/U9wtJq8cgSrQg55dfJZikM/gPOO55UBTC7w1lnqgGolbWsM+RDx1p//fV1JbEQRXTINddcU1133XWqS5cu3gBRK0cC99h9PhyvG6MYWWfIB/I4Yz7AdaZ8gOOkVnqkOrF/box8PkBx2uPNOkM+kHJm2886Yz4Qc7rxgDPlAyGnL77USo8+p8+H/XNjFMJ1hnwgjzPmA1xnygc4TooPUJ3UypHAdaIew5ZbbqkeeeQRs6U6CcOqq66q7r///qnu0P5ZYseebT8bo5QPhJxuPOCk+IDPmfV17zmtWepIRU8aqB2ISr196BSXX355h4wyS1Ed8sEHH9Q1Ipqt/VKIT3wcxCe+GKeeemrVE4Z+/fqpc889l5wwxGjEePjInTQ0YgNQfPik5sorr+zUAYvukKeccoquW56lGdovhPjEx0F84ovx0EMPdRhjUI2EAb/OOeecqU9+Wy0eIXIlDY3YABwfXh/suOOOZq06HRKP1nbbbTf1+eef623N1H4u4hMfB/GJL8YXX3yhB5Xb6a6rcX0GGFyJiQ2BxKMddtLQbA0Q4oQTTlCDBg2qWocEeKeE5MS3z1RaJR4W8YmPg/iay4cBjyjgNHLkSL1erevzggsuMHVgvMSjI6ykoRkbIETPnj3VZZddpnr06Dg9eFEJgwWfCw0bNqzDNN1UWikeQHzi4yC+5vLhycIuu+wytSx/tRIGXPMvuOAC/bvEozPkpKFZGyAEfIMHD1aHHHKI2VJ8wmB9eD93zDHH6GUqrRgPF/HREZ/4OJTRh5mJ77vvPr1crYQBHHXUUWrBBReSeAQgJQ3N3AA+sj68O8MnN9VKGCznnXeerhpJoZXjYREfHfGJj0MZfWeffba6+OKL9XI1E4aVV15ZzxUk8QiTTBqavQFcXB86FD656dOnj9nCg9PBkUnjqUOMVo8HEB8d8YmPQxl9d955pzrggAP0cjUTBvt5Zbdu3cwWPq0Qj2jS0AoNkCXkQ90G1G/o2rWr2UqD28ExrmGHHXZQL730ktnSEYmH+DiIT3wcyuh79dVX1TbbbKPHM1QzYUChPTztHTBggNnCp1XiyxoI2YwNYEn5VlpppQ7jG1Lk7eDjx49XG2644dRPMS2N3n5cxCc+DuJrPt9nn32mJ4hC+f1qJgzgiCOOUKuttppZ49NK8Y2Wke7Vs/3Lgdh/ECubCbI7TC2dSS3FCailM6mlOIGvlDM66aabbqpuv/12s8VPER0cn3viVQUm0YoF3LZniuyxpzoQ15nyAY6T4gNUJ7U0NKA4sX9uXwr5QMppjzfrjPlAzJltP+tM+UDI6cYDTooP+Jy++FJLQwPX6fNh/9wYxcg6Qz6QxxnzAa4z5QMcJ7WUM9WJ/XNj5POBkPPnn3/W9XLee++9qicMmDrgjjvu8P4/ltixu/HAsYeON0vI6YsvdWoBnzPUX9wYuYz5ZaxZ6gjpSQOlAUJQOjiHevrQqa644go133zzmS2dKaqDf/jhh/pTTDx5cJF40BGf+DiIr/6+iRMnqq233romCQO+kLvmmmuiCUOMVosvSCYNzdwAeXz4yf/uu+/WU6W6FN3B//3vf+uRvNkaDhIPOuITHwfx1d+Ha92uu+6qnn766aonDNNNN5265ZZb1AwzzGC28Gi1+FqiSUMzN0AlPmSnV111VYdOWK0O/sADD6i9995bDwSSeNARn/g4iK/+PlzjkDDcddddVU8YsI4vJRZaaCGzhUerxTcLayAklVZo0I022kj9/e9/18vV7uC33nqr2n///XM7WyEeWcQnPg7iq78P1zZ8VnnbbbdV/XoK8IMYBpznodXi61J40tBKDfrPf/5TrbDCn81aO0V3cPiuu+46deihh5otdFopHkB84uMgvnL4jj766E5Pby1FX09XWGEF/bVEHlotvj4KTRpasUEvvfQyNeuss5q16iQMFlREO+mkk8xamlaLh/jEx0F85fAdf/zx+lVBLRIG1GHAYPY8+9lq8Q1RWNLQag1qffgU5qabbtIDI6uZMFhOO+00XVI1RavGI4v46IhPfByK8mFiqDPPPLMmCQMGPt54443kzxezSHzbKSRpaPUGxcBIzIiZ18k9YY499lh1/vnnm7XOtHo8gPjoiE98HIry4Rp2+OGH1yRhQMVHXKMXXnhhs4WOxLcjFScN0qBtvqFDh6pTTz3VbKGT94TBXO84CVwkHuLjID7xcSjKh9cRGIxYi4QBvjPOOEOtscYaZgsdiW9nohUhp/w62Sz5sf9BtrJUaoeplbWsk9IA1Mpa1EpdgFpZy33UddBBB6nTTz/drMUp4oTB4Mh//OMfetm3f/Z4U9W/sthjj/kA15nyAY6TWumR6sT+uXEP9ReK0x5v1hnygZQz237WGfOBmNONB5wpHwg5ffGlVnr0OX0+7J8boxCuM+QDeZwxH+A6Uz7AcVJ8gOqkVo4EMSder+Jpaa0SBlwjQ2PBYvuZbT8bo9DxZgk53XjASfEBn9MXX86rF9fp+rr3nNYsdST3kwZqh6TSLD58UbHVVluZtTBFnTAnn3yyPgElHuLjID7xcSjKV+uEYbPNNlMnnHCC2UJH4hsmV9IgDRr2ofNiRszll1/ebOlM0SfMOeecoyfTyjokHnTEJz4O4uP7cG3C+IVaJgz4tHL48OF6PAMHiW/cx04apEHTvp49e+pS0745Kqp1wuAzogMPPFAqRzIRn/g4iI/vQ2nofffdV38pUauEYZ555tETC+JazEHim/axkgZpULqvb9++ugR0v379zJbqJQwWTLyy++67q8mT42NRQkh8xcdBfOJLgYRhr732Ck4KVY2EAdfe+++/v8O1l4LEl+YjJw3SoHyfzXZ79epVsxMG/9+OO+6oJk2aZLbSkPiKj4P4xJcCs1Vuu+22ujZCra5/uNbec889av755zdbaUh86T5S0iANmt+H92qYO6JHjx5mSxvVOGEs9957r9piiy3UmDFjzJY4El/xcRCf+FKMHj1aD0LE09ZaJQy4xl5//fVqyJAhZisNiS/Pl0wapEEr96222mrqhhuuV926ddPbqpkwWJ588kn9XfKXX35ptviR+IqPg/jEl+Kzzz5Tq6++ek2mtwbw4dqKuStWXHFFs5WGxJfviyYN0qDF+dZddz09dwR3JG8W7gn4wQcf6ITl9ddfN1s6IvEVHwfxiS/Fyy+/rJZbbjn10Ucf1Sxh6Nq1q7rooovUmmuuabbSkPjm87HuYNKgdHw+TMWKSmh5Eoe8J+D333//e8Kyrn7Pl0XiIT4O4hNfijvvvFOttNJK+ppTq4QB21HtceONNzZbaUh88/vIdy9pUDox31//+ld1yimn6GUqlZ6A48aNUxtttJFOWIDEQ3wcxCe+FKgVs+mmm+prTa0SBnDcccep7bffXi9TkfhW5ouWke7Vs23wXuo/oJbiBNTSmdRSnIBaOpNaihP7Z8uGpkiV4gT2eLPOE088kTSne9En4C677KIrpGW9bjw4x07tkFQntTQ0oDixf26MQj6QctrjzTpjPhBzZtvPOlM+EHK68YCT4gM+py++1NLQwHX6fNg/N0Yxss6QD+RxxnyA60z5AMdJLeVMdWL/3Bj5fMDnxCeVKNqEV6+glgkDSkOjRLRL7NjdeODYQ8ebJeT0xbcR70c+xvwy1ix1JPmkgdKgIWI7nIdm8uFE83X4LNU4AS+99FL9SeaECRP0NokHHfGJj0Oz+/BUAZ9U1iNhOOyww5LXTxeJb2U+SzRpkAalk8eHTPnvf/+7WetINU/A++67T62zzjrq66+/Nlv4SHzFx0F8zeX79NNP9RcS+KQS1DJh2G+//fSTWg4S38p8Wfgj8ghIgOi+s846Sx199NFmrY1anIBvvfWWWnnlldVjjz1mttCR+IqPg/iay/fII4+oVVZZRb377rt6vZYJw8EHH6zOPPNMvUxF4luZz6XwpEECxPcdc8wxUwdH1vIEHDVqlC7AgklkMGcFBYmv+DiIr3l8uG5glsott9xy6rvzWl6vstdJKhLfynw+Ck0aJED5fcigzzvvvE6fY1brBLTYCwG+6ogNIAISX/FxEF/z+FBdFuMXsj9g1CphwHa8ynWfyKaQ+FbmC1FY0iABqty366676tkqrafaCUOWhx9+WK266qrqvffeM1s6IvEVHwfxNY/vzTffVEsuuaQeC2WpVcKAwk3/+te/9ER8HCS+xfsshSQN0qDF+bbaait14YUXVuTLe0L/5z//0YnD1Vdfbba0IfEVHwfxNY8Pczksv/zy6pNPPjFbapcwYB/PP/98tc0225itNCS+xfuyVJw0SIMW79tkk010HXV3kisKlZ7Q+BRz2LBhap999tHLEg/xcRBfc/jGjx+vf7rfeuut9aeVllolDLj2XXvttXriPQ4S3+J9LhUlDdKg1fOtvfbaenbM6aabTq9TKPKERvXIP/3pT+rNN98wW9qQ+NIRn/g4lMWHryIwfwTmc8hSq4QB01vfcMMNesI9DhLf4n0+ohUhp/w62Sx1Jvsf2MpSlB2mVtaiVuoC1Mpa1EpdgFpZi1qpC2SdIR/IOp999lm1wQYbqJ9++sls8VOtExoZ/5FHHql23nnnqbN0WjjHTq30SHWi/dwYhfoLxWnjkXXG+l/KmY2vdcZ8IOZ0+wucKR8IOX39j1rp0ef0+bB/boxCuM6QD+RxxnyA60z5AMdJ8QGqk1o5Elgnrhd4HYCKsRMnTtTbLLVKGHCNvvvuu73TW8eOPdt+Nkah480ScrrxgJPiAz6nL75lvx917zmtWepIricNoR3Oi/jCvj//+c/qxRdfVIMGDTJbOlPNExoXD5S73nzzzdV3331ntvKQ+IqPg/hq7/vhhx/0OY4fEOqVMMwzzzzqmWee8SYMMSS+tfWxkwZp0Nr7cDI999xz6i9/+YvZ0k6tTugnn3xSrbDCCur+++83W2lIfMXHQXy199177736Rv3oo4+aLe3U6vqC///555+P/nDkQ+Jbex8raZAGrZ+vT58+uhIb6ilYanVCW/CKBAOjdttttw6Do0JIfMXHQXy19WGw47777qvrL4wcOdJsbadW1xfMjonKtP369TNbaUh86+MjJw3SoPX32RHFBx10UM0Thiw33XSTnjcf4y1CSHzFx0F8tfU9/fTTavHFF9c1EHzU6vpyyCGHqJtvvllNO63//XkIiW/9fKSkQRq0PD5UjER1tEsuubjDwMRaJQyWESNG6NclKEiFanFZJL7i4yC+2vlwruLpApL+jz76yGztSC0SBlzHzjjjDHXyySd7/zyGxLe+vmTSIA1aTt+wYTuou+66S80wwww1Txgs+HuXXHKJGjx4sLr99tv1Nomv+DiIr3Y+jF1YeOGF9dOF0FwztUgY8EklikZhin4uEt/6+6JJgzRouX1Dhw7VF4IBAwaYLTyKukB8++23uiAVJrLBKOwsEl864hMfB6oPXz1hYrr11ltPffnll2ZrZ2qRMOBa9dBDD+lptblIfMvhYw2ElAalUyvfIossop566in9uJFDNS4QeDeJn2Quv/wy7ZL40hGf+DhQfDgHhw8frs9JFIqLUYuEAV9IPP7442qhhRYyW+hIfMvjIycN0qB0au3r27evuuWWW9Ree+1ltsSp5gUCBUN2330PXdEyW6+eg8RXfBzE19mHMUeYR2b77bevW2E4C9b33ntvXbRp5plnNlvpSHzL5SMlDdKgdOrlw7bjjz9eXXfddap3795ma2eqfYEA8OGb7wUXXFAPunIHSsaQ+IqPg/g6+vAp9CmnnKIWXXRR9cQTT5itYap9PUAZ/Msvv1xPqY0ZK7lIfMvlA9Ey0r169iD9B9RSnIBaOpNaihP7Ry2dSS3FCfI4UwHiOikB9zk//PBDtfHGG3ea5rpWCYNL//791XHHHad22mknPWo6BI7XjVGs/6Xa07Zf1hnzgZgzGw/rTPlAyOnGF06KD/icvv5CLQ0NXKfPh/1zYxQj6wz5QB5nzAe4zpQPcJzUUs5UJ/bPjZH14by75ppr1MEHH0yu3Frt68H888+vbrvttujriNixu/HAsfvazyXk9MVX7kdhxvwy1ix1JPqkgRKgEKkd5iI+ug9V1V544QU9ONFSr4QBfP/99/rTzGWWWUaXifUh8RUfB/G1+1566SVdbh6vIsqSMKy77rq6/H2e8QtA4lsuXxbWQEgqEqD6+/ApJsY54FGl79/WKmHI8uqrr+raDhjF/dlnn5mtEl8gPjria/N9/fXXarvtttMzUqIEM5VqJgx4BYHic3feeaeaccYZzVYeEt9y+VwKTxokQOXx4WQ+4IADdD0HDJa01CNhyILPRPETCN5z+sY7SHzpiK/1fJMmTVJHH320mm+++fQrCc75V82EAWWgUS320EMPjb6GjCHxLZfPR6FJgwSonD58E/3kk0/ozzLrnTBYMGALSQM+B7v00kv0hRBIfOmIr7V8kydPVhdffLFOFjBGCHNHcKhmwoAvNTDwcpVVVjFb+Eh/KZcvRGFJgwSo3L7+/WfRg5LOOussdp13UK0LzldffaX23HMv/aXFFVdc4W0HCq0eXyA+Oo3kwzJqoGDcAj6r/uabb8yf0KnW+Yv5cDCdNr7ayltkDrRyfC1l91kKSRqkQRvDhxN92LBhusAKfsKnUq0LTpbPP/9cD5Zcaqml1FVXXaV+++038ydpJL7i49AoPpxjqG2AcUB77rmn+vTTT/V2LtU6fwcNml898MD9ugZD9+7d9bY8SH8pvy9LxUmDNGjj+TBXBOoo/P3vf0++e6xFwpD1ffHFF2q//fZTyy+/vLrxxhuTyYPEV3wcGsHXniysoD9T/vjjj82f8qnG+YtfGID58MOP/P7DxyISXwaN6HOpKGmQBm1cHx4rYjAVbsyhKm21ThiyYAa+3XffXY/DuP/++71/T+IrPg5l92Fcz3333atWXnklnSx89NGImp1vFODDteKGG25Qp59+un7NKfGl04g+H7mTBmnQ5vCtttpq6tlnn1Vrrrmm2dJGPROGLO+8847aeuut1Z/+9Cd10UUXqQkTJujtEl/xcSizD8kCZn1cccX/VTvssKN677339fayJQwY5IhXm3awo8SXTiP6QkQrQk75dbJZ6oj7H1ArdQFqZS1qpS5AraxFraoFqJW18jhjPsB1pnwg5cQFBdNco6Kc7zPIslzAUF0Sg8F22WWXDq9WYv0vdezZ9rMxivlAzOnGA86UD4ScvvhSKz36nKH+ku3zMVxnrP/lccZ8gOtM+QDHSfGBlBNzQmDwL8osu7PDlilhQL2FY489Ru2xx55T3b7jzRI79mz72RilfCDkdOMBJ8UHfE5ffFvxftRlmm5mrSPsJw2xHc6D+Mrhw8UAAxHffvttXc0tS5kuYLi4HnXUUWrOOefUg8PwvlfiS0d89fehsNkhhxyiZ6g9+eSTS50wrLHGGuqpp/6ttt56G3LCEEP6S+P7WEmDNGjz+2addVb908+1116rl8t0Acv6Jk6cqCte4jO0LbfcUpes5SL9RXwcKvW98cYbarfddtOv2lBvwb5qy1KW8w1jF84//3x9HRgwYKDZKvHl0Kw+ctIgDdpaPhSEwliHbbZp/wmDQzUTBgt8U6ZMUQ899JAek4HxGaiQN3asf6KVLNJfxMchrw99cfjw4Wro0KFq5ZVX1hUT8UVQrc4PLvBgDovnnntObb755mZrGxJfOs3sIyUN0qCt6cP7sXPPPVfdd999ugodlXpdEF955RW1zz776E9K8RPdk08+af6kIxJf8XHI48M8K/h0GH0R08Nj3VLWhGGuueZSd9xxh/4ywp03QuJLp9l9yaRBGlR8Q4YMUU899ZQeJJkq4lKGCyIGCeInuo022khP5nPqqafqQWdA4is+Dhzf6NGj9WDiJZdcUr+CQJEyd8BqGRMGHA/GM2EGWrzuc5H40mkFXzRpkAYVn6Vnz5568NYjjzyip7j2UcYL4ocffqj3e/bZZ9cFafDKJYvEl474OvvQH5FQo29hDBBuvq+//rr5046U8fxYYYUV9JwRmA3X9wOB9Bc6reJjDYSUBqXTrL5FF11UjyFAgZc//vGPZms5L4hZMOgMg7rwXnneeedV+++/v3rhhRdyO6W/tLbv3XffVcccc4waNGiQWnHFFfVYmtgEUmU7P2abbTZ19dVX64QHJeUlvuKjQk4apEHptIIPAw/fe+89/RPKDDPMYLa2U6aEwfWhVDXGaqCm/9xzz63fOePRLBXpL63p++CDD3SigHEKuNFiltYRI0aYvxGmTAlDr1699GvG999/Xz8dgUviKz4OpKRBGpROK/lQRvaAAw6YWrXRXszKnDCArA/fzP/rX/+amkDgRoAS1iGkv7SWD30BAwOXXXZZPbYH/QOvvKjUuj+HwL/bbLPNpib6008/vd4u/UV8XJJJgzQonVb1YUrcK6+8Ur8bxSyVean3BRazCJ599tn6BoEBYSeddJJ6+eWXp06aJf2l+X34hBcxx40Vrx3QDzCQNpZIhihLwoD+jE8oMb02iqJZpL+ILw/RMtK9p5/OLMWhluLEDlPLXFJLcYI8zlSDcp2UAHGc1IBTnf/973/NUjs+H6A4sX9ujODDReyuu+7Sc+x/9dVX5k/SlOUC66NPnz5q1VVX/f3XKmrNNddSAwcO1Mceaj8XX3v64kstDQ1cZ6i/uDGKkXXG+l8eZ6o/c50pH6A6cW7gk8h7771XPfDAA2rkyJF6e1n6H8jjm2WWWfSrCLyGcGezzbafjVGqP8fa040HnCkfCDl98aWWcvY5Q/0l2+djuM5Y/8vjjPkA15nygZRzzC/+ejesgZBUKDvMQXyN48PFbcMNN9SDDJE4zDTTTHp7jDInDGDUqFHq1ltvVbvvvod+hYGf3FD+9/nnn/e2RQrpL/X14d/jJ+/jjjtO/e///q8ezPjXv/5VXXfddU2RMPTt21fPYItEaNiwYdGEwSL9hU6r+VwKf9KQ2uF6ZEwWOKkNSnXW6if4ECmnPd6sM+YDMWe2/awz5sPkVxdccIG68MILvRNhlT1hSPlQBAefraEeBJKJxRZbrNOna9n2jPU/N+4xrDPVn7nOlA9wnPbdeRZff6E6sX9u/wz1P+vELJIo4YxS40hmMejV9sVG739Z0C4oKPX3v/9dv2bx4Yuv/ASfxjpTPsBxUnyA6izyfhR60lBo0tBKDQqwf9kOCkI+kHLa4806Yz4Qc2bbzzpTPhByuvGAk+IDuIhhwOFZZ53VlBdsS7du3dRCCy2kEwgkEhhgOc888+g/S/Vnty/FQIxSPsBxluEGH8Meb9bp86F/vfTSS+rRRx+dmij45nlolv433XTT6Zlf8SrCPtnztWeov8SuIVlcZ6z/5XGm+jPXmfIBjpPiA1Rn2e9HVU8aWq1B7fFmnTEfiDmz7WedKR8IOd14wEnxAZ/TF9887+Axox8Gll100UWdvmtvxAt2CngWWGABtfzyy+tfiy66yO/rC+qnEW483P4Zo1lu8JaUM9v/rBM+PEXAFwF4koDCXXjtgM8JU7Eqa3+xUHz4fBIzvf7jH//o9LTAbU/f+Wvj4TvffWSdMR/gOlM+wHFSfIDqbMX70bgJE81aRwpJGuQGn/aBkDPrA3BSfMDndH2gbIPs0GfOPvss9a9/nat/Cmy0CzYH14e2Q4XKBRdcUH9tgicTWMZXKL7/2wXt58Yo1F8oMbLxzTpj/S/lzPYX60z155jT+r7//jv14Ycfqc8//1xXXUSygCJLvqcIMRqtv4CsDwknxiqgZgSqUPrItmc2HpZsPNy+FMI6Uz7AcVJ8gOqU+1HaB0JO66ta0tCqDWqBk+IDPqfrA600iv7LL79Q55zzL3X55ZezjtvS6DeALGgjJA/4hacTc8wxh/6Fz+R69Oih/45tv2yMYv0vFaNsPKwz1Z9jTje+cFLOD+vElOdICvALRbiQGKCoEn7H3A6gUeNLIebD06VddtlFj1tARccYtj1j568l25diwEnxAapTbvBpHwg53XjASfEBnzPrq0rS0MoNapHP5GjAGfPhC4WLL7749wTiHPXdd9/pbSka+QbApX///jp5wBOKOeecQ1clnGOOOXVJbDyhQKEtH7EYufFAjCjnR8jpi6/72ByvpL7++mtdVAt1MezvH3/8sU4Svv/+e/M3Wyu+IORDfDGnBZ4uIImkgBilzl+Le10KITf4tA+EnG484KT4gM/pi2+R96PCk4ZWb1CA/ct20BRZZ8gH8jhjPsB1pnyA46S+g8eYh9tuu02dd955+qfLEHJD6ejD+218aodfuFHjF5YxSA51JuwvlPzG420UrLJ9B08xMCEZ/n7v3r1V165d9XYL/q4dvDpu3Dj1448/6mUbf4wrwDI+V0Tyh192Gf8ONxvMMopf+PcUJL5Kv7bCAMeNN95YD7AF7nUphNzg0z4QcrrXPzgpPuBz+q6nZb8fFZo0SIO2d8g8zpgPcJ0pH+A4yzDIDhfgxx9/XCcPTz75pN5mkRtK9X02Pr6+5SLtV5wPyyuttJJOFjC5mot7HvlAzNxzM3S+gZTT9oGsM+YDMWe2T1lnygdCTrePwknxAZ/T1+db8X6U6+uJKb9ONkvt+P4D6ne+wD2o0A6HOoiPrDPWoHmcMR/gOlM+wHFSf6KgOrF/box8PkBx2uPNOkM+4HO+9dZb6vzzz1fDhw/X77xd5AZFR3zl9OFJwvrrr6/ncsGnuiHcc9PFnm/Z8yh2voGYM3u9ss6UD4Sc7vUPTooP+JyuD8j9iAacMV+XadqebrmwKkKmdpiL+MRHAdNxY7wDZhQ88cQT9Xt8i9yg6IivfD5UGEXl1A8//EBPNx9LGFLI9UV8HPL6yEmDNKj4OFTDh1r6Bx10kB7rgII922+/fXAAYAq54YmPQ5E+jCFBqXWUJkcpciQNs802u1wPGIivfj5S0iANKj4OtfAts8wyurokCvng94UXXtj8SRq54YmPQ1G++eabT88Jgddtl156qZ73wrrlekBHfPX1JZMGaVDxcai1D3M/4FO0p59+Wk/NjWV8MRBCbnji41Cpzz5VuOOOO3RJawxwxFcsWeR6QEd89fdFkwZpUPFxqLdv8cUX108d8Pri3HPP1dNZZ/++3PDExyGvD4Ma11prLT14F+NwrrzySv1FBD5ddZHzl474yuFjDYSUBqUjvvr5UGtgm2220e+McdG++uqr1brrrjv1W3eL3PDoiC/uQ22LP//5z+rss89WX331lbr//vvVVlttpetiADl/xcehzD5y0iANSkd85fHhEyRcvPF4+Msvv1RXXHGFWmeddToVMOIgN1DxgS5dunRIFDDl9r777qtmnnlm8zfakPNXfBzK7iMlDdKgdMRXXh/eJeMJxD333KNLFmOqblz0cfGnIjfQ1vahr2C6c7z+Qjlsmyjgyx4fcv6Kj0PZfSB5tZQGpSO+xvFhdsC9995bX/Qx38HNN9+sJwPCHA8h5Abamj6U18ZgRoyXwdOqp556Sg9oDCUKFjnfxMeh7D5LNGmQBqUjvsb1oYLcZpttpgtIYRAlvsLAp3EYvGbHQcgNtHV8eJqw2GKL6ScIDzzwgProo4/0YEZ8mYPJoyjI+SY+DmX3ZalolksLtRQnoJa5pJbiBFwnpUE5TmqAqE6ZbCbtAyGnGw84KT7gOjHJ0qOPPqoee+wxfQPBI2kgN2Q6jeDr16+frpswdOiqap111g1OPe2eRz5s/8v2pVj/Szmz/dk6U/055nTPDzgp50fI6foAtZSzz+nzYf9C57uL6wz5QB5nzAe4zpQPcJwUH0g5Q3NP0F/mEqHuMBXxiY9D0T7Ugdhkk03UBRdcoD755BP16quv6km08GQC01RzkRt8OXyYZnzzzTdXp512mvr3v/+tBzKijPPf/rZTMGGgIOeb+DiU3eej0CcNlB2uR8ZkkZ/g0z4QcrrxgJPiAz6nL76NNpscxkO8/vrrunAPSgJjGVNF+5AbfH18+FIG85UMGTJELbvssmr55ZdXc8wxR4f42rin+nOsL7n9BU7K+RFy+vqf/ASfxjpTPsBxUnyA6iz7/SjXLJecpKHVGtQeb9YZ84GYM9t+1pnygZDTjQecFB/wOX3xlenLOzN27Fj9NAJzY7z00kvqzTff1H1ZbvC18+GTx6WWWkotscQSOkn405/+pHr16mX+tA03vog75fwIxd3XX+QGn8Y6Uz7AcVJ8gOpsxfvRuAmdZxQGhSQNcoNP+0DImfUBOCk+4HO6PiA3eBpwpnyA4xwzZrR64403f//1hv6FuQc+/fRTNWXKFPM3eEjC0ObDgMW55ppLVwJFgmB/t4MVQzHyxVdu8Gmsk3J+cJwUH6A65X6U9oGQ0/qqljS0aoNa4KT4gM/p+oDc4GnAmfIBjnP66ac3S+344kt1Yv/cGME3btw4PdkWvtbAr3fffVf/jvoRkydPNn+zM62YMHTv3l2/TsArhkGDBumnCAsuuKBaYIEForOc+mIU6i9ujEK4zlj/y+NM9Weuk3J+cJwUH6A65Qaf9oGQ040HnBQf8DmzvqokDa3coBa5wdOAM+UDHGetbvA+KE57vFlnyAfgxL/BoDw8icCv//znP+rzzz9X33zzjf5y44cffjB/u41mSRjwSgEDEAcOHKgHKc4999w6UZhrrj/qaaNtAS60nxujEG6MYv0vjzPVn7nOlA9wnBQfoDrlBp/2gZDTjQecFB/wOX3xLfJ+VHjS0OoNCrB/2Q6aIusM+UAeZ8wHuM6UD3CczXiDj5FtP+uM+UDMaX0YZPnNN1+r0aPHqO+++079+OOPejCmXUZSgc9ER40apX2hm3a1EwasYw4QVOHEo3980ojEAAWR8DvWkSDgCxQkC+PHjzf/so1Y/3PjHiLbnjEf4DpTPsBxUnyA6pQbfNoHQk43HnBSfMDn9MW37PejQpMGadD2DpnHGfMBrjPlAxyn3ODjPhBzuvGAM+UDIacvvtR38HhKMXr0aP0LgzQnTJigxowZo50Ya/Hrr7+pn3/+Wd/k7aN+/B17E8e2nj176mULCl7hiwR8jorjwiBD/J1evab9/VhnmposADfuIbLH7jvebPtxnSkf4DgpPkB1yg0+7QMhpxsPOCk+4HP64ku5H9l/5zp9PuyfG6MYWWfIB/I4XR9+8EAy//PYcWZLR9hJQ94GtTR6g4Jsh+Q6Uz7AccoNPu4DMacbDzhTPhBy+uIrg+zSWGfKBzhOig9QnXKDT/tAyOnGA06KD/icvvjW436Ef3f66afr5WyS7RvsbF+1ITmnYp0xH+A6fb6ZZppJf5Y8eMGF9A8TLtGkYcqvHQdkhRo01ZGzZBs/5AN5nDEf4DpTPsBxUi84VCf2z+3MPh+gOO3xZp0hH0g5s+1nnTEfiDndeMCZ8oGQ0xdf6gXH5/T5sH9ujEK4zpAP5HHGfIDrTPkAx0nxAaqTmlADihP758Yo5AMppz3erDPmAzFntv2sM+UDIacbDzgpPuBz+uJLTaiB6/T5sH9ujGJknSEfSDnxb0844QS9bG/cqRu8+wQvBpwpH+A4MRjbxfrwtHD3PffyzAas1P8P8vQR7S13m6AAAAAASUVORK5CYII=;" parent="1" vertex="1">
          <mxGeometry x="394.1" y="422" width="45.79" height="43" as="geometry" />
        </mxCell>
        <mxCell id="dbFyvB4pgqcIV-iJ2E-Y-51" value="&lt;font size=&quot;1&quot;&gt;University of Auckland&lt;/font&gt;" style="text;html=1;strokeColor=none;fillColor=none;align=center;verticalAlign=middle;whiteSpace=wrap;rounded=0;fontSize=15;" parent="1" vertex="1">
          <mxGeometry x="362.01" y="392" width="110" height="30" as="geometry" />
        </mxCell>
        <mxCell id="8QaoZKzaRBzuT5nK4393-1" value="&amp;nbsp; &amp;nbsp; &amp;nbsp; &amp;nbsp; &amp;nbsp; &amp;nbsp; &amp;nbsp; &amp;nbsp; &amp;nbsp; &amp;nbsp; &amp;nbsp; &amp;nbsp; &amp;nbsp; &amp;nbsp; &amp;nbsp; &amp;nbsp; &amp;nbsp; &amp;nbsp; &amp;nbsp; &amp;nbsp; &amp;nbsp; &amp;nbsp; &amp;nbsp; &amp;nbsp; &amp;nbsp; &amp;nbsp; &amp;nbsp; &amp;nbsp; &amp;nbsp; &amp;nbsp; &amp;nbsp; &amp;nbsp; &amp;nbsp; &amp;nbsp; &amp;nbsp; &amp;nbsp; &amp;nbsp; &amp;nbsp; &amp;nbsp; &amp;nbsp; &amp;nbsp; &amp;nbsp; &amp;nbsp; &amp;nbsp; &amp;nbsp; &amp;nbsp; &amp;nbsp; &amp;nbsp; &amp;nbsp; &amp;nbsp; &amp;nbsp; &amp;nbsp;&lt;u&gt;About Me&lt;/u&gt;&amp;nbsp; &amp;nbsp; &amp;nbsp;&lt;u&gt;CV&lt;/u&gt;&amp;nbsp; &amp;nbsp; &amp;nbsp;&lt;u&gt;Contact&lt;/u&gt;" style="rounded=0;whiteSpace=wrap;html=1;" vertex="1" parent="1">
          <mxGeometry x="154.01" y="120" width="526" height="40" as="geometry" />
        </mxCell>
        <mxCell id="8QaoZKzaRBzuT5nK4393-2" value="&amp;nbsp; &amp;nbsp; &amp;nbsp; &amp;nbsp; &amp;nbsp; &amp;nbsp; &amp;nbsp; &amp;nbsp; &amp;nbsp; &amp;nbsp; &amp;nbsp; &amp;nbsp; &amp;nbsp; &amp;nbsp; &amp;nbsp; &amp;nbsp; &amp;nbsp; &amp;nbsp; &amp;nbsp; &amp;nbsp; &amp;nbsp; &amp;nbsp; &amp;nbsp; &amp;nbsp; &amp;nbsp; &amp;nbsp; &amp;nbsp; &amp;nbsp; &amp;nbsp; &amp;nbsp; &amp;nbsp; &amp;nbsp; &amp;nbsp; &amp;nbsp; &amp;nbsp; &amp;nbsp; &amp;nbsp; &amp;nbsp; &amp;nbsp; &amp;nbsp; &amp;nbsp; &amp;nbsp; &amp;nbsp; &amp;nbsp; &amp;nbsp; &amp;nbsp; &amp;nbsp; &amp;nbsp; &amp;nbsp; &amp;nbsp; &amp;nbsp; &amp;nbsp;&lt;u&gt;About Me&lt;/u&gt;&amp;nbsp; &amp;nbsp; &amp;nbsp;&lt;u&gt;CV&lt;/u&gt;&amp;nbsp; &amp;nbsp; &amp;nbsp;&lt;u&gt;Contact&lt;/u&gt;" style="rounded=0;whiteSpace=wrap;html=1;" vertex="1" parent="1">
          <mxGeometry x="154.01" y="670" width="526" height="40" as="geometry" />
        </mxCell>
      </root>
    </mxGraphModel>
  </diagram>
</mxfile>
